<?xml version="1.0" standalone="no"?>
<!DOCTYPE svg PUBLIC "-//W3C//DTD SVG 20010904//EN"
 "http://www.w3.org/TR/2001/REC-SVG-20010904/DTD/svg10.dtd">
<svg version="1.0" xmlns="http://www.w3.org/2000/svg"
 width="2048.000000pt" height="2048.000000pt" viewBox="0 0 2048.000000 2048.000000"
 preserveAspectRatio="xMidYMid meet">

<g transform="translate(0.000000,2048.000000) scale(0.100000,-0.100000)"
fill="#000000" stroke="none">
<path d="M16160 18800 l0 -80 -80 0 -80 0 0 -80 0 -80 -80 0 -80 0 0 -80 0
-80 -80 0 -80 0 0 -240 0 -240 80 0 80 0 0 -80 0 -80 80 0 80 0 0 -80 0 -80
240 0 240 0 0 80 0 80 81 0 80 0 -3 83 -3 82 83 -3 82 -3 0 80 0 81 80 0 80 0
0 240 0 240 -80 0 -80 0 0 80 0 80 -80 0 -80 0 0 80 0 80 -240 0 -240 0 0 -80z
m480 -160 l0 -80 80 0 80 0 0 -240 0 -240 -160 0 -160 0 0 -160 0 -160 -240 0
-240 0 0 80 0 80 -80 0 -80 0 0 240 0 240 80 0 80 0 0 80 0 80 80 0 80 0 0 80
0 80 240 0 240 0 0 -80z"/>
<path d="M16708 18445 c-4 -4 -4 -13 -1 -21 3 -8 -1 -14 -11 -14 -10 0 -13 -5
-9 -17 6 -16 5 -16 -10 -4 -10 8 -20 11 -24 7 -3 -3 -2 -6 4 -6 6 0 14 -7 17
-16 5 -13 2 -15 -16 -11 -23 6 -23 6 1 -12 l25 -19 -25 -5 c-17 -3 -12 -5 15
-6 29 -1 37 -4 32 -16 -3 -8 -1 -15 4 -15 6 0 10 8 10 18 0 14 2 15 10 2 5 -8
11 -12 14 -10 7 8 10 119 3 127 -4 3 -7 -2 -7 -12 0 -23 -16 -9 -22 18 -1 11
-6 16 -10 12z"/>
<path d="M16760 18353 c0 -25 2 -44 5 -41 9 8 12 88 3 88 -4 0 -8 -21 -8 -47z"/>
<path d="M16741 18274 c0 -11 3 -14 6 -6 3 7 2 16 -1 19 -3 4 -6 -2 -5 -13z"/>
<path d="M16324 17895 c-1 -14 2 -25 8 -25 5 0 6 5 2 12 -5 7 -3 8 5 4 7 -5
10 -14 8 -20 -3 -7 1 -13 9 -13 7 0 10 5 7 11 -4 6 3 3 15 -8 20 -17 66 -25
78 -13 3 2 8 21 11 41 l6 36 -74 0 c-72 0 -74 -1 -75 -25z"/>
<path d="M9600 18160 l0 -80 -160 0 -160 0 0 -80 0 -80 -80 0 -80 0 0 -80 0
-80 -80 0 -80 0 0 -80 0 -80 -80 0 -80 0 0 -160 0 -160 -80 0 -80 0 0 -640 0
-640 -80 0 -80 0 0 -320 0 -320 80 0 80 0 0 -80 0 -80 80 0 80 0 0 -80 0 -80
80 0 80 0 0 -400 0 -400 -80 0 -80 0 0 -80 0 -80 -80 0 -80 0 0 -80 0 -80
-240 0 -240 0 0 -80 0 -80 -320 0 -320 0 0 -80 0 -80 -160 0 -160 0 0 -80 0
-80 -80 0 -80 0 0 -80 0 -80 -80 0 -80 0 0 -80 0 -80 -80 0 -80 0 0 -80 0 -80
-80 0 -80 0 0 -80 0 -80 -160 0 -160 0 0 80 0 80 -80 0 -80 0 0 160 0 160 -80
0 -80 0 0 560 0 560 -80 0 -80 0 0 80 0 80 -80 0 -80 0 0 640 0 640 -80 0 -80
0 0 80 0 80 -80 0 -80 0 0 80 0 80 -240 0 -240 0 0 -80 0 -80 -80 0 -80 0 0
-480 0 -480 80 0 80 0 0 -160 0 -160 -80 0 -80 0 0 -80 0 -80 -160 0 -160 0 0
-80 0 -80 573 -1 c314 0 566 -3 560 -6 -9 -3 -13 -29 -13 -79 l0 -74 80 0 80
0 0 -160 0 -160 -480 0 -480 0 0 -80 0 -80 400 0 400 0 0 -80 0 -80 80 0 80 0
0 -160 0 -160 -480 0 -480 0 0 -80 0 -80 480 0 480 0 0 -160 0 -160 -80 0 -80
0 0 -80 0 -80 -400 0 -400 0 0 -80 0 -80 400 0 400 0 0 -80 0 -80 -80 0 -80 0
0 -80 0 -80 -480 0 -480 0 0 80 0 80 -80 0 -80 0 0 160 0 160 -80 0 -80 0 0
-240 0 -240 80 0 80 0 2 -237 3 -238 77 -3 77 -3 3 -77 3 -77 78 -3 77 -3 0
-79 0 -80 80 0 80 0 0 -80 0 -80 80 0 80 0 0 -80 0 -80 80 0 80 0 0 -80 0 -80
160 0 160 0 0 -80 0 -80 160 0 160 0 0 -80 0 -80 400 0 400 0 0 80 0 80 240 0
240 0 0 80 0 80 160 0 160 0 0 80 0 80 160 0 160 0 0 80 0 80 80 0 80 0 0
-400 0 -400 80 0 80 0 0 -1040 0 -1040 -80 0 -80 0 0 -560 0 -560 80 0 80 0 0
-1440 0 -1440 -80 0 -80 0 0 -880 0 -880 -80 0 -80 0 0 -640 0 -640 -80 0 -80
0 0 -80 0 -80 -80 0 -80 0 0 -240 0 -240 880 0 880 0 0 320 0 320 80 0 80 0 0
240 0 240 80 0 80 0 0 400 0 400 80 0 80 0 0 400 0 400 80 0 80 0 0 320 0 320
80 0 80 0 0 320 0 320 80 0 80 0 0 240 0 240 80 0 80 0 0 240 0 240 80 0 80 0
0 160 0 160 80 0 80 0 0 160 0 160 80 0 80 0 0 -240 0 -240 80 0 80 0 0 -240
0 -240 80 0 80 0 0 -480 0 -480 80 0 80 0 0 -560 0 -560 80 0 80 0 0 -880 0
-880 80 0 80 0 0 -400 0 -400 240 0 240 0 0 80 0 80 80 0 80 0 0 -80 0 -80
800 0 800 0 0 160 0 160 -80 0 -80 0 0 80 0 80 -80 0 -80 0 0 80 0 80 -160 0
-160 0 0 80 0 80 -80 0 -80 0 0 2800 0 2800 80 0 80 0 0 880 0 880 -80 0 -80
0 0 480 0 480 80 0 80 0 0 -80 0 -80 80 0 80 0 0 -80 0 -80 160 0 160 0 0 -80
0 -80 240 0 240 0 0 -80 0 -80 720 0 720 0 0 80 0 80 80 0 80 0 0 80 0 80 81
0 80 0 -3 83 -3 82 163 -3 163 -3 -3 83 -3 83 163 -3 163 -3 -3 83 -3 83 83
-3 82 -3 0 80 0 81 -47 2 c-44 1 -45 2 -11 5 43 5 46 11 51 108 3 47 4 41 5
-27 l2 -88 80 0 80 0 0 80 0 80 80 0 80 0 0 80 0 80 80 0 80 0 0 160 0 160 80
0 80 0 0 80 0 80 80 0 80 0 0 80 0 80 80 0 80 0 0 160 0 160 80 0 80 0 0 160
0 160 80 0 80 0 0 80 0 80 80 0 80 0 0 160 0 160 80 0 80 0 0 160 0 160 80 0
80 0 0 160 0 160 80 0 80 0 0 80 0 80 80 0 80 0 0 160 0 160 80 0 80 0 0 240
0 240 -160 0 -160 0 0 80 0 80 -79 0 c-78 0 -79 0 -84 28 -3 15 -4 51 -3 80
l3 52 -238 0 -239 0 0 -80 0 -80 -80 0 -80 0 0 -80 0 -80 -80 0 -80 0 0 -80 0
-80 -80 0 -80 0 0 -80 0 -80 -80 0 -80 0 0 -80 0 -80 -80 0 -80 0 0 -160 0
-160 -80 0 -80 0 0 80 0 80 -80 0 -80 0 0 80 0 80 -80 0 -80 0 0 80 0 80 -160
0 -160 0 0 80 0 80 -240 0 -240 0 0 80 0 80 -240 0 -240 0 0 80 0 80 -240 0
-240 0 0 -80 0 -80 -80 0 -80 0 0 -80 0 -80 -160 0 -160 0 0 -160 0 -160 -80
0 -80 0 0 -160 0 -160 -80 0 -80 0 0 -160 0 -160 -80 0 -80 0 0 -160 0 -160
-80 0 -80 0 0 -160 0 -160 -80 0 -80 0 0 160 0 160 -80 0 -80 0 0 160 0 160
-80 0 -80 0 0 160 0 160 -80 0 -80 0 0 160 0 160 -80 0 -80 0 0 80 0 80 -160
0 -160 0 0 80 0 80 -240 0 -240 0 0 80 0 80 -80 0 -80 0 0 1440 0 1440 80 0
80 0 0 480 0 480 -80 0 -80 0 0 80 0 80 -80 0 -80 0 0 80 0 80 -80 0 -80 0 0
80 0 80 -160 0 -160 0 0 80 0 80 -800 0 -800 0 0 -80z m1216 -87 c-4 -4 -19
-9 -34 -11 -31 -4 -54 -20 -46 -33 3 -5 0 -9 -5 -9 -6 0 -11 14 -11 30 0 29 1
30 52 30 28 0 48 -3 44 -7z m47 0 c-7 -2 -19 -2 -25 0 -7 3 -2 5 12 5 14 0 19
-2 13 -5z m-98 -74 c-4 -6 -13 -8 -20 -5 -8 3 -16 -3 -18 -12 -3 -12 -5 -11
-6 6 -1 17 4 22 25 22 15 0 23 -4 19 -11z m-15 -72 c10 -4 8 -6 -7 -6 -16 -1
-23 5 -23 17 0 10 3 13 8 6 4 -6 14 -14 22 -17z m-190 -67 c0 -33 -4 -60 -10
-60 -5 0 -7 7 -4 15 4 8 1 15 -5 15 -6 0 -11 -9 -11 -19 0 -26 -17 -36 -23
-14 -3 13 -5 12 -6 -5 -1 -19 3 -23 22 -20 12 2 25 8 29 13 4 6 8 2 8 -7 0
-16 -10 -18 -80 -18 l-80 0 0 80 0 80 80 0 80 0 0 -60z m639 -102 c0 -90 -3
-157 -6 -150 -2 6 -14 12 -24 12 -11 0 -17 -4 -14 -10 4 -6 -17 -10 -54 -10
l-61 0 0 80 c0 74 -1 80 -21 80 -11 0 -26 6 -34 13 -11 11 -9 16 7 26 18 11
20 11 15 -3 -4 -10 -1 -16 9 -16 10 0 14 6 10 15 -3 9 0 15 9 15 8 0 15 5 15
10 0 6 8 10 18 10 14 0 15 2 2 10 -12 7 -11 10 5 16 11 5 20 3 23 -4 4 -14 32
10 32 27 0 6 5 11 10 11 17 0 11 18 -7 23 -10 3 1 5 25 6 l42 1 -1 -162z
m-269 11 l35 -6 -42 -2 -43 -1 1 48 2 47 6 -40 c5 -36 9 -41 41 -46z m-690
-89 l0 -80 -80 0 -80 0 0 80 0 80 80 0 80 0 0 -80z m1265 71 c-11 -5 -23 -7
-27 -4 -5 2 -8 0 -8 -6 0 -5 6 -11 13 -14 6 -3 1 -5 -13 -4 -14 1 -28 5 -31
10 -3 5 -9 2 -12 -7 -4 -9 -1 -15 5 -13 6 1 12 -3 14 -8 2 -6 -6 -11 -18 -12
-13 -1 -24 -7 -26 -13 -2 -5 -8 -8 -13 -4 -5 3 -9 -2 -9 -10 0 -8 -4 -18 -10
-21 -6 -4 -10 17 -10 54 l0 61 83 -1 c52 0 75 -3 62 -8z m14 -38 c0 -25 -1
-25 -8 -8 -5 11 -7 23 -4 28 8 14 13 7 12 -20z m-2 -105 c-3 -8 -6 -5 -6 6 -1
11 2 17 5 13 3 -3 4 -12 1 -19z m-797 2 c0 -5 -5 -10 -11 -10 -5 0 -7 5 -4 10
3 6 8 10 11 10 2 0 4 -4 4 -10z m660 0 c0 -5 -5 -10 -11 -10 -5 0 -7 5 -4 10
3 6 8 10 11 10 2 0 4 -4 4 -10z m-1637 -17 c-13 -2 -23 -8 -23 -13 0 -4 9 -6
20 -3 19 5 20 0 20 -66 l0 -71 -66 0 c-59 0 -64 1 -50 16 17 16 21 29 8 20 -4
-2 -14 4 -21 16 -7 11 -8 17 -2 13 6 -3 11 -1 11 4 0 6 8 11 18 12 17 1 -32
20 -55 21 -7 1 -13 5 -13 10 0 4 -9 8 -20 8 -11 0 -19 5 -17 12 1 8 -16 13
-50 16 -43 2 -52 0 -56 -15 -4 -14 -5 -13 -6 5 l-1 22 163 -1 c89 -1 152 -4
140 -6z m-255 -146 l37 -4 -42 -1 c-41 -2 -43 -1 -42 26 1 22 2 23 6 5 3 -17
13 -23 41 -26z m115 -4 c-13 -2 -35 -2 -50 0 -16 2 -5 4 22 4 28 0 40 -2 28
-4z m2237 -165 c0 -89 -3 -158 -7 -154 -4 3 -6 24 -5 46 2 32 -1 40 -15 41
-15 1 -15 2 -2 6 12 3 15 14 13 41 -2 20 -3 43 -3 51 -1 11 -5 10 -17 -5 -8
-10 -13 -14 -10 -9 2 6 1 17 -5 25 -7 12 -9 10 -9 -7 0 -12 -6 -24 -12 -26 -7
-3 -2 -6 12 -6 20 -1 25 -7 26 -27 2 -20 -2 -25 -20 -23 -43 3 -71 -1 -59 -9
7 -4 10 -17 6 -30 -4 -16 -9 -20 -18 -12 -8 7 -12 5 -12 -5 0 -8 4 -12 8 -9 4
2 10 0 14 -6 3 -5 1 -10 -6 -10 -21 0 -3 -11 27 -16 47 -8 41 -14 -14 -14
l-52 0 0 143 c0 101 4 147 13 156 10 11 10 13 0 7 -7 -4 -13 -2 -13 3 0 7 30
11 80 11 l80 0 0 -162z m-80 -73 c0 -8 -4 -15 -10 -15 -5 0 -7 7 -4 15 4 8 8
15 10 15 2 0 4 -7 4 -15z m-2009 -97 c0 -10 2 -10 6 0 4 9 94 12 404 12 l399
0 0 -80 0 -80 240 0 240 0 0 80 0 80 160 0 160 0 0 -80 0 -80 74 0 75 0 4 33
c2 17 5 -55 5 -160 l2 -193 24 0 c15 0 26 7 29 20 3 14 14 20 34 21 15 1 21 3
12 6 -22 5 -32 43 -12 43 8 0 11 -4 8 -10 -3 -5 -2 -10 3 -10 6 0 12 15 14 34
2 19 0 32 -4 30 -4 -3 -8 -1 -8 3 0 5 -12 10 -27 11 -52 4 -35 12 25 12 l62 0
0 -160 0 -160 -240 0 -240 0 0 -80 0 -80 -80 0 -80 0 0 -160 0 -160 -80 0 -80
0 0 -240 0 -240 80 0 80 0 1 78 c0 42 0 114 -1 160 l-1 82 80 0 81 0 0 -80 0
-80 160 0 160 0 0 80 0 80 80 0 80 0 0 -480 0 -480 -80 0 -80 0 0 80 0 80 -80
0 -80 0 0 80 0 80 -80 0 -80 0 0 160 0 160 -80 0 -80 0 0 -160 0 -160 -240 0
c-132 0 -240 -4 -240 -8 0 -5 -25 -7 -55 -7 -47 2 -55 -1 -50 -14 5 -13 4 -14
-6 -3 -21 20 -25 14 -24 -43 0 -31 -4 -55 -10 -55 -5 0 -3 -5 6 -10 17 -10 94
-7 122 5 12 5 17 3 17 -9 0 -13 -13 -16 -80 -16 l-80 0 0 80 0 80 -160 0 -160
0 0 -80 0 -80 -160 0 -160 0 0 -76 c0 -48 4 -73 10 -69 6 4 8 11 5 16 -4 5 -2
9 4 9 5 0 11 -5 13 -12 2 -6 30 -13 62 -16 35 -3 57 -1 53 5 -3 5 -2 15 4 23
6 11 9 8 9 -12 l0 -28 -160 0 -160 0 0 80 0 80 -80 0 -80 0 -2 308 c-1 169 -4
241 -5 160 l-4 -148 -74 0 -75 0 0 480 0 480 80 0 80 0 0 320 0 320 80 0 80 0
0 80 0 80 75 0 c53 0 75 -4 76 -12z m1712 5 c-13 -2 -33 -2 -45 0 -13 2 -3 4
22 4 25 0 35 -2 23 -4z m54 1 c-3 -3 -12 -4 -19 -1 -8 3 -5 6 6 6 11 1 17 -2
13 -5z m-2705 -434 c2 -22 0 -40 -4 -40 -5 0 -8 18 -8 40 0 22 2 40 4 40 2 0
6 -18 8 -40z m2868 -600 l0 -80 -240 0 -240 0 0 80 0 80 240 0 240 0 0 -80z
m-6400 -160 l0 -80 80 0 80 0 0 -640 0 -640 -320 0 -320 0 2 68 2 67 3 -64 4
-63 157 6 c86 3 158 5 159 6 2 0 2 6 0 13 -1 8 9 11 31 9 17 -2 32 1 32 7 0 5
-9 8 -20 6 -13 -2 -20 2 -20 11 0 8 4 12 10 9 14 -9 35 7 37 28 1 15 -4 18
-23 14 -32 -6 -30 -2 8 17 36 18 41 19 33 7 -3 -5 0 -13 7 -17 7 -4 10 -4 6 1
-4 4 -1 13 8 20 16 11 -9 15 -104 18 -20 1 -22 5 -16 30 5 26 5 28 -14 16 -14
-9 -18 -18 -12 -28 6 -12 2 -16 -16 -17 l-24 -2 20 28 c20 28 18 66 -4 53 -6
-3 -3 3 7 14 19 21 23 53 7 53 -5 0 -10 -10 -10 -22 -1 -21 -1 -22 -11 -5 -9
14 -7 21 7 32 26 19 36 9 32 -33 -2 -21 2 -37 7 -37 9 0 15 96 7 123 -2 6 -14
12 -25 12 -20 0 -20 0 -1 -15 26 -20 6 -32 -47 -29 -31 1 -39 -1 -35 -12 3 -7
1 -16 -4 -19 -6 -4 -10 10 -11 32 -1 73 -16 2 -18 -87 -1 -46 -4 -86 -7 -89
-2 -2 -4 104 -4 237 l0 242 -80 0 -80 0 0 400 0 400 240 0 240 0 0 -80z m3680
0 l0 -80 80 0 80 0 0 -80 0 -80 -80 0 -80 0 1 33 c2 29 2 29 6 5 4 -23 9 -26
36 -25 18 1 38 9 45 17 10 13 11 13 6 -2 -3 -10 -1 -18 5 -18 11 0 15 17 11
59 -1 15 2 21 9 16 8 -4 10 2 7 21 -7 36 -15 40 -76 39 -27 0 -50 3 -50 7 0 4
-36 8 -80 8 l-80 0 0 -240 0 -240 80 0 80 0 0 80 0 80 80 0 80 0 0 -160 0
-160 -160 0 -160 0 0 80 0 80 -80 0 -80 0 0 320 0 320 160 0 160 0 0 -80z
m1567 -846 c-3 -3 -12 -4 -19 -1 -8 3 -5 6 6 6 11 1 17 -2 13 -5z m-610 -121
c-3 -10 -5 -2 -5 17 0 19 2 27 5 18 2 -10 2 -26 0 -35z m-4878 -138 c0 -5 -4
-3 -9 5 -5 8 -9 22 -9 30 0 16 17 -16 18 -35z m-29 15 c0 -5 -5 -10 -11 -10
-5 0 -7 5 -4 10 3 6 8 10 11 10 2 0 4 -4 4 -10z m-4 -55 c-3 -20 -16 -31 -16
-13 0 13 8 28 16 28 1 0 1 -7 0 -15z m64 5 c0 -5 -4 -10 -10 -10 -5 0 -10 5
-10 10 0 6 5 10 10 10 6 0 10 -4 10 -10z m-37 -43 c3 -8 -1 -14 -8 -14 -7 0
-11 6 -8 14 3 7 6 13 8 13 2 0 5 -6 8 -13z m-213 -27 c0 -5 -5 -10 -11 -10 -5
0 -7 5 -4 10 3 6 8 10 11 10 2 0 4 -4 4 -10z m6540 -150 l0 -160 -80 0 -80 0
0 -80 0 -80 -80 0 -80 0 0 80 0 80 -240 0 -240 0 0 -80 0 -80 -160 0 -160 0 0
80 0 80 -80 0 -80 0 0 160 0 160 640 0 640 0 0 -160z m-5761 -187 c-1 -22 -2
-23 -6 -8 -3 11 -10 23 -17 27 -7 5 -5 8 7 8 12 0 17 -7 16 -27z m-2 -100 c-2
-16 -4 -5 -4 22 0 28 2 40 4 28 2 -13 2 -35 0 -50z m5923 -273 c0 -79 0 -80
-25 -80 -15 0 -25 6 -26 15 -3 28 -4 33 -11 41 -5 4 -8 17 -9 28 0 21 -1 21
-9 1 -6 -13 -9 -15 -9 -5 -1 13 -2 13 -11 0 -7 -11 -10 -12 -10 -2 0 10 -4 9
-16 -2 -22 -23 -30 -13 -32 39 l-2 45 80 0 80 0 0 -80z m6450 6 c0 -3 -4 -8
-10 -11 -5 -3 -10 -1 -10 4 0 6 5 11 10 11 6 0 10 -2 10 -4z m28 -33 c-10 -2
-26 -2 -35 0 -10 3 -2 5 17 5 19 0 27 -2 18 -5z m-8878 -133 l0 -80 80 0 80 0
0 -80 0 -80 80 0 80 0 0 80 0 80 80 0 80 0 0 -80 0 -80 80 0 80 0 0 -80 0 -80
80 0 80 0 0 -80 0 -80 240 0 240 0 0 -80 0 -80 -80 0 -80 0 0 -80 0 -80 80 0
80 0 0 -80 0 -80 80 0 80 0 0 -480 0 -480 -80 0 -80 0 0 160 0 160 -80 0 -80
0 0 160 0 160 -80 0 -80 0 0 160 0 160 -80 0 -80 0 0 -240 0 -240 74 0 c69 0
75 2 79 23 2 12 5 -60 6 -160 l1 -183 80 0 80 0 0 -160 0 -160 80 0 80 0 0
-160 0 -160 82 0 c102 0 98 -10 -5 -12 -66 -1 -77 -3 -77 -19 0 -11 11 -20 31
-24 24 -5 28 -9 18 -16 -12 -8 -11 -12 4 -23 20 -15 24 -51 5 -40 -10 5 -10 4
-2 -5 6 -6 28 -13 50 -15 l39 -4 6 67 c4 47 6 25 7 -81 l2 -148 80 0 80 0 0
-240 0 -240 -80 0 -80 0 0 160 0 160 -80 0 -80 0 0 80 0 80 -80 0 -80 0 0 80
0 80 -80 0 -80 0 0 160 0 160 -80 0 -80 0 0 80 0 80 -80 0 -80 0 0 80 0 80
-80 0 -80 0 0 80 0 80 -80 0 -80 0 0 80 0 80 -80 0 -80 0 0 80 0 80 -80 0 -80
0 0 160 0 160 80 0 80 0 0 80 0 80 80 0 80 0 0 80 0 80 -160 0 -160 0 0 80 0
80 -160 0 -160 0 0 320 0 320 80 0 80 0 0 80 0 80 80 0 80 0 0 -80z m9120 0
l0 -80 80 0 80 0 0 -80 0 -80 -160 0 -160 0 0 -80 0 -80 -80 0 -80 0 0 -80 0
-80 -80 0 -80 0 0 -80 0 -80 -80 0 -80 0 0 -80 0 -80 -80 0 -80 0 0 -80 0 -80
-160 0 -160 0 0 240 0 240 80 0 80 0 0 80 0 80 80 0 80 0 0 80 0 80 80 0 80 0
0 80 0 80 160 0 160 0 0 80 0 80 160 0 160 0 0 -80z m-9760 -160 l0 -80 -80 0
-80 0 0 -80 0 -80 80 0 80 0 0 -320 0 -320 80 0 80 0 0 74 c0 63 -3 75 -17 79
-10 3 26 5 80 6 l97 1 0 -80 0 -80 -80 0 -80 0 0 -240 0 -240 160 0 160 0 0
-160 0 -160 74 0 75 0 4 53 c2 28 4 -8 5 -80 2 -127 1 -133 -18 -133 -11 0
-20 -5 -20 -11 0 -5 5 -7 10 -4 15 9 12 -4 -5 -21 -8 -9 -15 -11 -15 -5 0 6
-4 11 -10 11 -5 0 -10 -5 -10 -11 0 -7 -8 -18 -17 -25 -17 -13 -17 -14 0 -8
10 4 17 1 17 -7 0 -7 -3 -10 -6 -6 -4 3 -21 0 -39 -8 -19 -7 -36 -11 -39 -7
-3 3 -6 -9 -6 -27 l0 -32 58 1 c111 3 102 10 102 -77 0 -69 2 -75 14 -57 8 10
11 21 7 24 -5 3 -5 14 0 25 7 19 10 17 13 -14 0 -8 7 -16 15 -19 9 -3 11 0 6
9 -5 8 -5 11 -1 7 4 -3 8 -10 9 -15 2 -18 30 -36 62 -40 l35 -5 0 81 0 81 80
0 80 0 0 -80 0 -80 80 0 80 0 0 -80 0 -80 80 0 80 0 0 -80 0 -80 80 0 80 0 0
-80 0 -80 80 0 80 0 0 -80 0 -80 80 0 80 0 0 -80 0 -80 -80 0 -80 0 0 -80 0
-80 155 0 154 0 4 83 c1 45 4 -27 5 -160 l2 -243 80 0 80 0 0 -80 0 -80 -80 0
-80 0 0 -80 0 -80 80 0 80 0 0 -80 0 -80 -80 0 -80 0 0 -80 0 -80 -80 0 -80 0
0 -80 0 -80 80 0 80 0 0 80 0 80 80 0 80 0 0 -80 0 -80 -80 0 -80 0 0 -80 0
-80 80 0 80 0 0 -80 0 -80 -80 0 -80 0 0 -80 0 -80 80 0 80 0 0 -80 0 -80 80
0 80 0 0 -80 0 -80 -80 0 -80 0 0 80 0 80 -80 0 -80 0 0 -80 0 -80 -80 0 -80
0 0 -80 0 -80 80 0 80 0 0 -80 0 -80 80 0 80 0 0 80 0 80 80 0 80 0 0 -160 0
-160 -160 0 -160 0 0 -80 0 -80 80 0 80 0 0 -80 0 -80 -80 0 -80 0 -2 -112 c0
-62 -3 -98 -5 -80 l-4 32 -75 0 -74 0 0 -80 0 -80 -80 0 -80 0 0 -80 0 -80
-80 0 -80 0 0 240 0 240 -80 0 -80 0 0 -80 0 -80 -80 0 -80 0 0 -80 0 -80 80
0 80 0 0 -80 0 -80 -80 0 -80 0 0 -80 0 -80 -80 0 -80 0 0 80 0 80 -80 0 -80
0 0 -80 0 -80 -80 0 -80 0 0 80 0 80 -80 0 -80 0 0 -80 0 -80 -80 0 -80 0 0
80 0 80 -80 0 -80 0 0 80 0 80 80 0 80 0 0 80 0 80 80 0 80 0 0 80 0 80 -80 0
-80 0 0 80 0 80 -80 0 -80 0 0 80 0 80 80 0 80 0 0 80 0 80 80 0 80 0 0 -80 0
-80 80 0 80 0 0 80 0 80 80 0 80 0 0 -80 0 -80 80 0 80 0 0 80 0 80 80 0 80 0
0 80 0 80 -77 -1 c-43 -1 -91 -5 -108 -9 l-30 -8 30 -1 c27 -1 28 -3 13 -15
-22 -16 -23 -27 -3 -20 8 4 15 1 15 -5 0 -6 -5 -11 -11 -11 -5 0 -7 -5 -4 -10
4 -6 -11 -1 -33 10 -37 19 -79 19 -66 -1 3 -5 0 -9 -5 -9 -6 0 -11 4 -11 10 0
5 -6 9 -12 7 -8 -1 -14 11 -16 31 l-3 32 80 0 81 0 0 320 0 320 -160 0 -160 0
0 80 0 80 -80 0 -80 0 0 -80 0 -80 -80 0 -80 0 0 240 0 240 80 0 80 0 0 65 c0
40 4 65 11 65 6 0 4 7 -5 15 -10 11 -36 15 -90 15 l-76 0 0 80 0 80 80 0 80 0
0 80 0 80 -80 0 -80 0 0 80 0 80 80 0 80 0 0 -80 0 -80 80 0 80 0 0 80 0 80
80 0 80 0 0 80 0 80 -80 0 -80 0 0 80 0 80 80 0 80 0 0 80 0 80 -80 0 -80 0 0
80 0 80 -160 0 -160 0 0 156 c0 137 -2 159 -17 171 -17 14 -17 14 0 9 12 -4
17 0 17 14 0 11 -7 20 -15 20 -8 0 -15 -5 -15 -11 0 -5 -4 -8 -9 -4 -5 3 -12
1 -16 -5 -4 -7 -13 -7 -26 0 -11 6 -24 8 -29 5 -6 -3 -10 -2 -10 4 0 5 5 13
10 16 6 4 7 12 4 18 -4 7 -3 8 2 4 5 -5 9 -13 9 -18 0 -5 3 -9 8 -9 4 0 14 0
22 0 8 0 15 4 15 10 0 5 -7 7 -15 4 -8 -4 -15 -2 -15 4 0 16 29 35 55 35 24 0
24 1 8 13 -17 13 -17 14 0 8 15 -6 17 3 17 95 l0 101 -80 0 -80 0 0 80 0 80
80 0 80 0 0 240 0 240 -80 0 -79 0 1 -187 c0 -107 4 -175 8 -158 6 24 8 20 8
-25 0 -42 -2 -49 -8 -30 -6 20 -8 14 -9 -27 l-1 -53 -75 0 -74 0 -4 -137 c-1
-76 -4 104 -5 400 l-2 537 -80 0 -80 0 0 -160 0 -160 -80 0 -80 0 0 400 0 399
78 3 77 3 3 238 3 237 -80 0 -81 0 0 -160 0 -160 -80 0 -80 0 0 80 0 80 -80 0
-80 0 0 -160 0 -160 -80 0 -80 0 0 160 0 160 -80 0 -80 0 0 80 0 80 80 0 80 0
0 -80 0 -80 80 0 80 0 0 160 0 160 80 0 80 0 0 -80 0 -80 80 0 80 0 0 80 0 80
80 0 80 0 0 80 0 80 80 0 80 0 0 -80z m3360 0 l0 -80 80 0 80 0 0 -160 0 -160
80 0 80 0 0 -160 0 -160 -160 0 -160 0 0 -80 0 -80 80 0 80 0 0 -80 0 -80 80
0 80 0 0 -160 0 -160 -80 0 -80 0 0 -160 0 -160 -80 0 -80 0 0 -160 0 -160
-80 0 -80 0 0 -80 0 -80 -80 0 -80 0 0 -160 0 -160 -80 0 -80 0 0 -160 0 -160
-80 0 -80 0 0 -80 0 -80 -80 0 -80 0 0 -160 0 -160 -80 0 -80 0 0 160 0 160
80 0 80 0 0 240 0 240 80 0 80 0 0 160 0 160 80 0 80 0 0 240 0 240 80 0 80 0
0 320 0 320 80 0 80 0 0 560 0 560 80 0 80 0 0 -80z m3360 0 l0 -80 240 0 240
0 0 -80 0 -80 240 0 240 0 0 -80 0 -80 160 0 160 0 0 -80 0 -80 80 0 80 0 0
-80 0 -80 80 0 80 0 0 -160 0 -160 -80 0 -80 0 0 80 0 80 -160 0 -160 0 0 80
0 80 -240 0 -240 0 0 80 0 80 -160 0 -160 0 0 80 0 80 -160 0 -160 0 0 80 0
80 -160 0 -160 0 0 80 0 80 -80 0 -80 0 0 80 0 80 240 0 240 0 0 -80z m-467
-220 c3 -11 1 -18 -4 -14 -5 3 -9 12 -9 20 0 20 7 17 13 -6z m-7373 -100 l0
-80 -80 0 -80 0 0 80 0 80 80 0 80 0 0 -80z m4160 -160 l0 -240 -160 0 -160 0
0 -80 0 -80 80 0 80 0 0 -320 0 -320 -80 0 -80 0 0 -160 0 -160 -80 0 -80 0 0
320 0 320 -80 0 -80 0 0 160 0 160 80 0 80 0 0 80 0 80 80 0 80 0 0 80 0 80
-80 0 -80 0 0 80 0 80 160 0 160 0 0 80 0 80 80 0 80 0 0 -240z m960 160 l0
-80 80 0 80 0 0 -80 c0 -44 -4 -80 -9 -80 -6 0 -7 -16 -4 -35 5 -33 -10 -51
-19 -23 -3 8 -7 6 -11 -5 -3 -9 -3 -16 1 -16 22 4 32 -3 33 -23 1 -13 3 -319
6 -680 l4 -658 -241 0 -240 0 0 160 0 160 80 0 80 0 0 160 0 160 80 0 80 0 0
160 0 160 -80 0 -80 0 0 80 0 80 80 0 80 0 0 80 0 80 -80 0 -80 0 1 88 c0 48
3 81 6 75 2 -7 16 -13 29 -13 16 0 24 -6 25 -17 1 -17 2 -17 6 0 2 9 11 17 19
17 8 0 15 -8 15 -17 1 -17 2 -17 6 0 6 22 53 24 53 2 0 -9 7 -18 15 -21 8 -4
15 -16 14 -28 0 -20 -1 -20 -8 -2 -7 18 -8 18 -14 2 -11 -28 -8 -39 8 -32 20
7 19 -4 -2 -20 -15 -11 -16 -15 -4 -26 12 -11 13 -10 8 5 -7 19 9 24 16 5 3
-7 6 22 6 65 1 71 -1 77 -19 77 -18 0 -20 7 -20 81 l0 81 -42 -2 c-24 -2 -60
-2 -80 -1 l-38 1 0 80 0 80 80 0 80 0 0 -80z m-5280 -320 l0 -80 80 0 80 0 0
80 0 80 80 0 80 0 0 -80 0 -80 -80 0 -80 0 0 -80 0 -80 -80 0 -80 0 0 -80 0
-80 160 0 160 0 0 80 0 80 160 0 160 0 0 -80 0 -80 -160 0 -160 0 0 -80 0 -80
240 0 240 0 0 -80 0 -80 -80 0 -80 0 0 -80 0 -80 -160 0 -160 0 0 -80 0 -80
-160 0 -160 0 0 -160 0 -160 -80 0 -80 0 0 80 0 80 -74 0 c-69 0 -75 -2 -79
-22 -2 -13 -5 23 -6 80 l-1 102 160 0 160 0 0 80 0 80 -80 0 -80 0 0 80 0 80
-80 0 -80 0 0 80 0 80 -80 0 -80 0 0 80 0 80 -80 0 -80 0 0 80 0 80 80 0 80 0
0 -80 0 -80 80 0 80 0 0 80 0 80 160 0 160 0 0 80 0 80 -160 0 -160 0 0 80 0
80 160 0 160 0 0 -80z m5600 0 l0 -80 -80 0 -80 0 0 80 0 80 80 0 80 0 0 -80z
m-290 50 c0 -5 -4 -10 -10 -10 -5 0 -10 5 -10 10 0 6 5 10 10 10 6 0 10 -4 10
-10z m-4343 -22 c-3 -8 -6 -5 -6 6 -1 11 2 17 5 13 3 -3 4 -12 1 -19z m28 -78
c3 -6 -1 -7 -9 -4 -10 4 -16 1 -16 -7 0 -7 -3 -10 -6 -6 -7 7 4 27 16 27 5 0
12 -4 15 -10z m-2115 -430 l0 -400 -80 0 -80 0 0 -160 0 -160 -80 0 -80 0 0
-80 0 -80 -80 0 -80 0 0 -80 0 -80 -480 0 -480 0 0 80 0 80 -80 0 -80 0 0 80
0 80 -80 0 -80 0 0 80 0 80 80 0 c69 0 80 2 80 18 0 11 3 13 8 6 4 -7 18 -14
32 -17 21 -4 20 -4 -7 -6 l-33 -1 0 -80 0 -80 80 0 80 0 0 -80 0 -80 400 0
400 0 0 80 0 80 80 0 80 0 0 80 0 80 80 0 80 0 0 80 0 80 80 0 80 0 0 400 0
400 80 0 80 0 0 -400z m2498 393 c-10 -2 -26 -2 -35 0 -10 3 -2 5 17 5 19 0
27 -2 18 -5z m379 -190 c-3 -10 -5 -4 -5 12 0 17 2 24 5 18 2 -7 2 -21 0 -30z
m3883 -10 l-5 -48 -3 43 c-2 23 -8 42 -13 42 -7 0 -9 -28 -7 -75 2 -41 0 -75
-4 -75 -5 0 -8 36 -8 80 0 76 1 80 23 80 21 0 22 -3 17 -47z m120 -33 c0 -62
-3 -80 -14 -80 -10 0 -12 8 -7 33 4 17 6 53 5 80 -1 26 2 47 7 47 5 0 9 -36 9
-80z m-123 -42 c-3 -8 -6 -5 -6 6 -1 11 2 17 5 13 3 -3 4 -12 1 -19z m-3880
-30 c-3 -8 -6 -5 -6 6 -1 11 2 17 5 13 3 -3 4 -12 1 -19z m-2557 -168 l0 -160
80 0 80 0 0 -80 0 -80 -80 0 -80 0 0 -80 0 -80 80 0 80 0 0 -160 0 -160 -80 0
-80 0 0 80 0 80 -80 0 -80 0 0 -80 0 -80 -80 0 -80 0 0 160 0 160 80 0 80 0 0
320 0 320 80 0 80 0 0 -160z m2397 -17 c-3 -10 -5 -2 -5 17 0 19 2 27 5 18 2
-10 2 -26 0 -35z m4323 -65 l0 -83 -60 1 c-55 1 -61 -1 -66 -22 -3 -12 -3 -28
1 -33 3 -6 1 -11 -6 -11 -8 0 -10 11 -6 35 3 19 2 35 -4 35 -5 0 -8 -37 -7
-82 1 -46 3 -64 5 -40 2 23 8 42 13 42 5 0 7 -13 5 -28 -2 -16 1 -35 6 -43 6
-9 9 13 11 61 l2 75 5 -70 6 -70 48 -3 47 -3 0 -80 0 -79 74 0 c50 0 76 4 79
13 3 6 6 -30 6 -80 l1 -93 80 0 80 0 0 -80 0 -80 -80 0 -80 0 -2 -52 -2 -53
-3 51 -4 52 -87 6 c-48 3 -93 6 -99 7 -8 2 -13 18 -13 40 0 35 -3 39 -32 48
l-33 10 35 -2 c24 -1 34 2 33 11 -2 7 7 12 22 12 25 0 25 0 25 95 l0 95 -80 0
-80 0 0 240 0 240 80 0 80 0 0 -82z m1602 2 l-4 -80 -79 0 -79 0 0 -160 0
-160 -160 0 -160 0 0 80 0 80 80 0 80 0 0 80 0 80 80 0 80 0 0 80 0 80 83 0
82 0 -3 -80z m638 0 l0 -80 80 0 80 0 0 -80 0 -80 -160 0 -160 0 0 80 0 80
-80 0 -80 0 0 80 0 80 160 0 160 0 0 -80z m-6575 -324 c0 -64 -2 -74 -17 -73
-12 1 -14 5 -8 11 13 13 13 69 0 61 -5 -3 -10 1 -10 10 0 9 5 13 10 10 9 -6
14 10 13 43 -1 6 2 12 6 12 3 0 6 -33 6 -74z m4492 -8 c-2 -13 -4 -5 -4 17 -1
22 1 32 4 23 2 -10 2 -28 0 -40z m-8700 -64 c-3 -3 -12 -4 -19 -1 -8 3 -5 6 6
6 11 1 17 -2 13 -5z m10950 -56 c-3 -7 -5 -2 -5 12 0 14 2 19 5 13 2 -7 2 -19
0 -25z m0 -110 c-2 -18 -4 -4 -4 32 0 36 2 50 4 33 2 -18 2 -48 0 -65z m150
-125 c-2 -32 -3 -6 -3 57 0 63 1 89 3 58 2 -32 2 -84 0 -115z m-6397 47 l0
-80 -80 0 -80 0 0 80 0 80 80 0 80 0 0 -80z m-583 48 c-3 -8 -6 -5 -6 6 -1 11
2 17 5 13 3 -3 4 -12 1 -19z m413 -22 c0 -3 -4 -8 -10 -11 -5 -3 -10 -1 -10 4
0 6 5 11 10 11 6 0 10 -2 10 -4z m6417 -133 c-2 -27 -3 -5 -3 47 0 52 1 74 3
48 2 -27 2 -69 0 -95z m-8619 -126 c12 -3 11 -5 -5 -6 -23 -1 -23 0 -21 117
l2 117 3 -112 c3 -95 6 -112 21 -116z m6212 73 c0 -44 4 -80 8 -80 38 0 130
25 140 38 10 13 12 -20 12 -171 l0 -187 -80 0 -80 0 0 -160 0 -160 80 0 80 0
0 -80 0 -80 240 0 240 0 0 -80 0 -80 240 0 240 0 0 -160 0 -160 80 0 80 0 0
80 0 80 80 0 80 0 0 -80 0 -80 -80 0 -80 0 0 -80 0 -80 -80 0 -80 0 -2 -87 -2
-88 -6 85 -6 85 -2 -67 c-1 -38 -6 -68 -10 -68 -4 0 -6 16 -4 35 4 30 1 35
-17 35 -17 0 -21 -6 -21 -29 0 -16 6 -32 13 -34 6 -3 -7 -6 -30 -6 -24 -1 -43
3 -43 9 0 5 6 7 13 5 8 -4 12 5 12 25 0 17 -5 30 -12 30 -7 0 -13 5 -13 10 0
6 6 10 14 10 10 0 12 7 8 22 -5 20 -6 21 -12 3 -6 -18 -7 -17 -12 3 -6 21 -3
22 63 22 l69 0 0 80 0 80 -79 0 c-44 0 -81 -4 -83 -10 -1 -6 -1 30 0 80 l4 90
-81 0 -81 0 0 -80 0 -80 -80 0 -80 0 0 160 0 160 -152 -2 c-102 -1 -134 -3
-98 -8 47 -5 51 -7 29 -14 -37 -11 -95 -4 -92 12 2 9 -19 12 -82 12 l-85 0 0
80 0 80 -80 0 -80 0 0 80 0 80 -80 0 -80 0 0 240 0 240 80 0 80 0 0 80 0 80
-80 0 -80 0 0 80 0 80 80 0 80 0 0 -80z m-4516 45 c-4 -8 -9 -15 -13 -15 -4 0
-8 7 -8 15 0 8 6 15 13 15 8 0 11 -6 8 -15z m666 -34 c0 -17 -5 -33 -12 -37
-8 -5 -9 -2 -5 9 3 9 2 19 -3 22 -11 7 -2 35 11 35 5 0 9 -13 9 -29z m-640 -1
c0 -5 -7 -10 -15 -10 -8 0 -15 -6 -15 -12 0 -10 -3 -9 -9 1 -5 7 -14 10 -20 7
-6 -4 -11 -2 -11 5 0 6 8 9 19 6 10 -2 25 -1 32 4 18 11 19 11 19 -1z m7047
-22 c-3 -7 -5 -2 -5 12 0 14 2 19 5 13 2 -7 2 -19 0 -25z m-6444 -3 c-8 -22
-22 -18 -16 5 3 11 9 17 14 15 4 -3 6 -12 2 -20z m-33 5 c0 -5 -7 -7 -15 -4
-8 4 -15 8 -15 10 0 2 7 4 15 4 8 0 15 -4 15 -10z m-579 -53 c-10 -9 -11 -8
-5 6 3 10 9 15 12 12 3 -3 0 -11 -7 -18z m-2221 -97 l0 -80 -80 0 -80 0 0 80
0 80 80 0 80 0 0 -80z m320 0 l0 -80 -80 0 -80 0 0 80 0 80 80 0 80 0 0 -80z
m5920 0 l0 -80 -320 0 -320 0 0 80 0 80 320 0 320 0 0 -80z m2910 -76 c0 -2
-7 -4 -15 -4 -8 0 -15 4 -15 10 0 5 7 7 15 4 8 -4 15 -8 15 -10z m-990 -84 c0
-61 3 -80 14 -80 7 0 16 -9 19 -20 4 -14 10 -18 23 -13 12 4 15 3 10 -6 -5 -7
-14 -10 -22 -7 -7 3 -16 1 -19 -4 -3 -4 1 -10 7 -13 10 -3 10 -7 -1 -21 -12
-15 -11 -19 6 -35 15 -14 23 -16 34 -7 21 16 22 36 1 30 -14 -5 -14 -4 2 6 15
10 16 14 5 21 -9 6 -10 12 -4 17 21 15 13 39 -11 36 -13 -1 -24 2 -24 7 0 6 6
9 13 8 6 -1 41 -1 77 0 44 1 60 4 50 11 -9 6 -15 30 -17 69 -3 73 6 81 96 81
l61 0 0 -160 0 -160 -161 0 -160 0 1 68 c1 37 1 73 1 80 -1 8 -24 12 -81 12
l-80 0 0 80 0 80 80 0 80 0 0 -80z m2400 -160 l0 -240 -80 0 -80 0 0 -160 0
-160 -80 0 -80 0 0 -160 0 -160 -67 1 c-38 0 -62 3 -55 6 6 2 12 11 12 18 0 7
6 16 13 18 8 4 7 6 -4 6 -8 1 -20 -4 -25 -9 -7 -7 -11 -6 -11 5 0 8 5 15 11
15 5 0 1 7 -10 15 -19 14 -19 14 1 15 16 0 17 2 5 10 -18 11 -27 3 -33 -30 -3
-17 -5 -13 -6 15 -1 26 -4 35 -10 27 -4 -7 -6 -24 -4 -36 3 -13 1 -26 -4 -29
-6 -4 -10 12 -9 36 0 37 -2 42 -22 41 -12 0 -22 5 -22 13 0 9 -11 12 -40 9
-22 -2 -40 0 -40 5 0 5 -36 9 -80 9 l-80 0 0 -160 0 -160 -160 0 -160 0 0 -80
0 -80 -105 0 -105 0 -1 38 -2 37 -7 -40 c-6 -36 -7 -37 -9 -10 -2 26 -3 27
-11 10 -7 -17 -9 -17 -9 -2 -1 28 -21 19 -22 -10 -2 -22 -3 -19 -9 12 l-7 40
-2 -36 c-1 -34 -3 -37 -30 -35 -16 0 -27 5 -24 9 3 5 14 7 24 4 14 -4 19 0 19
16 0 18 -2 19 -10 7 -5 -8 -10 -10 -10 -4 0 5 6 16 13 23 10 11 10 13 0 7 -8
-4 -13 -1 -13 9 0 10 -7 15 -17 13 -12 -2 -18 3 -17 15 1 12 -6 17 -27 17 -16
0 -29 5 -29 11 0 5 -5 7 -12 3 -8 -5 -9 0 -5 16 l6 22 -20 -21 c-11 -11 -24
-21 -28 -21 -5 0 -9 43 -10 95 l-2 95 75 0 75 0 4 -47 c2 -27 4 45 5 160 l2
207 -80 0 -80 0 0 160 0 160 80 0 80 0 0 -80 0 -80 80 0 80 0 0 -160 0 -160
80 0 80 0 0 -80 0 -80 80 0 80 0 0 480 0 480 160 0 160 0 0 -400 0 -400 80 0
80 0 0 160 0 160 80 0 80 0 0 160 0 160 80 0 80 0 0 160 0 160 80 0 80 0 0
-240z m-8200 94 c0 -8 -5 -12 -10 -9 -6 4 -8 11 -5 16 9 14 15 11 15 -7z m-35
-5 c-8 -11 -55 -12 -55 -1 0 5 14 9 30 10 17 0 28 -4 25 -9z m3275 -89 l0 -80
80 0 80 0 0 80 0 80 160 0 160 0 0 -80 0 -80 -80 0 -80 0 0 -80 0 -80 80 0 80
0 0 -80 0 -80 -80 0 -80 0 0 -80 0 -80 -80 0 -80 0 0 -80 0 -80 80 0 80 0 0
-240 0 -240 -80 0 -80 0 0 -80 0 -80 80 0 80 0 0 -320 0 -320 -160 0 -160 0 0
-80 0 -80 80 0 80 0 0 -80 0 -80 -80 0 -80 0 0 -80 0 -80 80 0 80 0 0 -80 0
-80 80 0 80 0 0 -80 0 -80 80 0 80 0 0 -80 0 -80 80 0 80 0 0 -80 0 -80 -80 0
-80 0 0 -80 0 -80 80 0 80 0 0 -320 0 -320 -320 0 c-176 0 -320 3 -320 8 0 4
33 7 74 6 41 0 72 4 70 8 -3 4 -12 8 -20 8 -8 0 -14 5 -14 10 0 13 6 13 31 0
19 -10 19 -4 19 295 l-1 305 -79 0 -80 0 0 -80 0 -80 -39 0 c-22 0 -43 -4 -46
-10 -3 -5 -16 -10 -28 -10 -18 0 -19 -2 -7 -11 13 -9 13 -10 0 -6 -8 2 -14 11
-14 20 1 9 -4 13 -12 10 -11 -4 -14 12 -14 81 l0 86 -80 0 -80 0 0 -240 0
-240 -80 0 -80 0 0 80 0 80 -80 0 -80 0 0 80 0 80 -80 0 -80 0 0 80 0 80 80 0
80 0 0 80 0 80 -80 0 -80 0 0 80 0 80 -80 0 -80 0 0 160 0 160 -80 0 -80 0 0
160 0 160 80 0 80 0 0 -80 0 -80 80 0 80 0 2 -122 c3 -203 -2 -182 43 -189
l40 -6 -42 -2 -43 -1 0 -80 0 -80 80 0 80 0 0 80 0 80 80 0 80 0 0 80 0 80
-80 0 -80 0 0 80 0 80 80 0 80 0 0 80 0 80 -80 0 -80 0 1 93 c0 50 3 86 6 80
3 -9 29 -13 79 -13 l74 0 0 80 0 80 -80 0 -80 0 0 80 0 80 80 0 80 0 0 80 0
80 -80 0 -80 0 0 80 0 80 80 0 80 0 0 -80 0 -80 80 0 80 0 0 80 0 80 80 0 80
0 0 80 0 80 -80 0 -80 0 0 -80 0 -80 -80 0 -80 0 0 80 0 80 -80 0 -80 0 0 80
0 80 80 0 80 0 0 80 0 80 -92 1 c-51 0 -87 3 -80 6 8 3 12 29 12 79 l0 74 -80
0 -80 0 0 -74 c0 -50 4 -76 13 -79 6 -3 -30 -6 -80 -6 l-93 -1 0 -80 0 -80
-80 0 -80 0 0 80 0 80 80 0 80 0 0 80 0 80 80 0 80 0 0 80 0 80 80 0 80 0 0
160 0 160 160 0 160 0 0 160 0 160 80 0 80 0 0 80 0 80 80 0 80 0 0 -80z
m-3455 -70 c42 0 53 3 49 14 -3 8 0 17 7 22 9 5 10 2 6 -9 -4 -10 0 -20 11
-26 12 -8 -4 -10 -60 -11 l-78 0 2 68 2 67 3 -62 4 -63 54 0z m79 71 c3 -5 -1
-11 -9 -14 -9 -4 -12 -1 -8 9 6 16 10 17 17 5z m-44 -31 c0 -5 -7 -7 -15 -4
-8 4 -15 8 -15 10 0 2 7 4 15 4 8 0 15 -4 15 -10z m380 -610 l0 -80 -80 0 -80
0 0 80 0 80 80 0 80 0 0 -80z m4640 -5 l0 -75 -77 2 -78 2 72 5 71 6 -1 68
c-1 37 1 67 6 67 4 0 7 -34 7 -75z m-160 -155 l0 -80 -80 0 -80 0 0 80 0 80
80 0 80 0 0 -80z m2893 31 c2 -10 1 -25 -4 -32 -6 -10 -9 -4 -9 19 0 36 5 42
13 13z m-6 -73 c-3 -8 -6 -5 -6 6 -1 11 2 17 5 13 3 -3 4 -12 1 -19z m-1287
-358 l0 -320 80 0 80 0 0 -80 0 -80 -160 0 -160 0 0 400 0 400 80 0 80 0 0
-320z m-960 258 c0 -18 -5 -40 -11 -48 -8 -12 -10 -9 -6 13 3 18 0 27 -9 27
-7 0 -11 -6 -8 -14 3 -8 1 -17 -5 -21 -7 -4 -11 4 -11 19 0 14 5 28 11 32 8 4
7 9 -2 15 -10 6 -6 9 14 9 24 0 27 -4 27 -32z m-135 -88 c3 -5 -1 -10 -9 -10
-13 0 -16 -14 -16 -80 l0 -80 -80 0 -80 0 0 80 0 80 80 0 c47 0 80 4 80 10 0
6 4 10 9 10 6 0 13 -4 16 -10z m615 -170 l0 -160 -80 0 -80 0 0 80 0 80 76 0
75 0 -4 80 c-2 44 0 80 5 80 4 0 8 -72 8 -160z m647 38 c-2 -24 -4 -7 -4 37 0
44 2 63 4 43 2 -21 2 -57 0 -80z m263 62 c0 -5 -4 -10 -10 -10 -5 0 -10 5 -10
10 0 6 5 10 10 10 6 0 10 -4 10 -10z m25 -38 c-3 -3 -11 0 -18 7 -9 10 -8 11
6 5 10 -3 15 -9 12 -12z m-1305 -68 c0 -2 -26 -4 -57 -3 -34 0 -50 3 -40 7 17
7 97 4 97 -4z m-196 -27 c3 3 6 1 6 -5 0 -7 7 -12 15 -12 8 0 15 4 15 8 0 5
16 8 35 7 19 0 35 2 35 5 0 3 20 6 45 6 24 1 42 -3 39 -8 -3 -4 -21 -8 -41 -8
-20 0 -34 -3 -30 -6 3 -4 0 -13 -8 -20 -8 -8 -12 -21 -9 -28 4 -9 -3 -16 -18
-19 -19 -4 -18 -5 7 -6 25 -2 27 -4 11 -10 -17 -7 -18 -8 -3 -14 12 -5 18 0
23 18 3 14 10 25 16 25 5 0 6 -5 2 -12 -5 -8 0 -9 14 -6 30 8 28 2 -5 -16 -28
-15 -27 -15 29 -16 46 0 57 3 61 18 4 13 5 11 6 -5 1 -23 1 -23 -159 -23
l-160 0 0 64 c0 53 3 65 18 69 9 2 24 0 33 -4 9 -5 19 -5 23 -2z m180 -28 c3
-3 -4 -5 -14 -6 -11 -1 -22 2 -25 8 -6 9 30 7 39 -2z m63 -41 c-3 -7 -5 -2 -5
12 0 14 2 19 5 13 2 -7 2 -19 0 -25z m-3197 -138 l0 -80 80 0 80 0 0 -80 0
-80 -80 0 -80 0 0 80 0 80 -75 0 -74 0 -4 -62 c-2 -35 -4 1 -5 80 l-2 142 80
0 80 0 0 -80z m160 -480 l0 -80 -80 0 -80 0 0 80 0 80 80 0 80 0 0 -80z m-308
-210 c3 -16 1 -30 -4 -30 -4 0 -8 14 -8 30 0 17 2 30 4 30 2 0 6 -13 8 -30z
m61 -27 c-7 -2 -21 -2 -30 0 -10 3 -4 5 12 5 17 0 24 -2 18 -5z m-2254 -23 c1
13 2 13 11 0 9 -13 10 -13 10 0 0 10 12 16 35 17 l35 3 0 -103 c0 -125 -5
-146 -31 -140 -15 4 -19 0 -18 -18 0 -22 1 -22 8 -5 7 19 8 19 13 -2 5 -18 2
-22 -20 -22 -35 0 -25 -7 21 -14 l37 -6 0 155 0 155 240 0 240 0 0 -80 0 -80
-80 0 -80 0 0 -80 0 -80 -240 0 -241 0 2 138 c1 75 4 132 6 125 4 -10 7 -10
18 0 10 9 10 15 1 26 -8 12 -8 13 2 7 8 -5 12 -1 13 11 0 16 1 16 9 -2 6 -13
9 -15 9 -5z m3941 -140 l0 -160 -160 0 -160 0 0 160 0 160 160 0 160 0 0 -160z
m-3276 -396 c3 -8 2 -12 -4 -9 -6 3 -10 10 -10 16 0 14 7 11 14 -7z m36 -15
c0 -6 -4 -7 -10 -4 -5 3 -10 11 -10 16 0 6 5 7 10 4 6 -3 10 -11 10 -16z m30
-59 c0 -5 -4 -10 -10 -10 -5 0 -10 5 -10 10 0 6 5 10 10 10 6 0 10 -4 10 -10z
m-665 -550 c-3 -5 -12 -10 -18 -10 -7 0 -6 4 3 10 19 12 23 12 15 0z m-17 -55
c-10 -11 -48 -14 -48 -4 0 5 12 9 27 9 14 0 24 -2 21 -5z m-64 -18 c-3 -10 9
-14 48 -16 76 -3 73 -11 -4 -11 -61 0 -66 1 -61 20 3 11 9 20 14 20 5 0 6 -6
3 -13z m3396 -89 c0 -4 -7 -8 -15 -8 -8 0 -15 4 -15 8 0 5 7 9 15 9 8 0 15 -4
15 -9z m-1683 -30 c-3 -8 -6 -5 -6 6 -1 11 2 17 5 13 3 -3 4 -12 1 -19z m1661
-23 c0 -37 -13 -48 -21 -17 -4 14 -5 13 -6 -3 -1 -18 -6 -20 -36 -17 -43 5
-56 21 -15 17 20 -2 30 2 30 11 0 8 7 14 15 14 9 0 18 7 21 15 9 23 12 18 12
-20z m-118 -27 c0 -4 -11 -8 -25 -8 -14 0 -25 4 -25 8 0 4 11 8 25 8 14 0 25
-4 25 -8z m-1607 -15 c-7 -2 -21 -2 -30 0 -10 3 -4 5 12 5 17 0 24 -2 18 -5z
m545 -285 l-2 -283 -6 265 c-3 146 -9 259 -13 253 -5 -7 -5 -17 -2 -23 3 -5 1
-10 -4 -10 -6 0 -11 8 -11 19 0 16 -8 19 -55 20 l-55 1 -3 -223 -2 -222 -3
243 -2 242 80 0 80 0 -2 -282z m1122 202 l0 -80 -80 0 -80 0 0 80 0 80 80 0
80 0 0 -80z m-927 -247 c-22 -4 -23 -8 -26 -156 l-3 -152 -2 158 -2 157 28 -1
c23 -2 24 -2 5 -6z m126 -55 c-1 -54 -2 -58 -9 -29 -4 18 -7 44 -5 57 1 13 -2
24 -6 24 -5 0 -10 -7 -10 -15 -3 -29 -4 -33 -13 -42 -5 -4 -7 6 -4 25 4 28 2
32 -18 32 -13 0 -24 -7 -27 -17 -4 -14 -5 -12 -6 5 -1 20 3 22 49 22 l50 0 -1
-62z m-59 14 c0 -15 -2 -15 -10 -2 -13 20 -13 33 0 25 6 -3 10 -14 10 -23z
m-583 -119 c-3 -10 -5 -4 -5 12 0 17 2 24 5 18 2 -7 2 -21 0 -30z m-467 -75
l-5 -83 -105 -1 -105 0 103 3 102 4 0 79 c0 44 3 80 8 80 4 0 5 -37 2 -82z
m1258 75 c-10 -2 -28 -2 -40 0 -13 2 -5 4 17 4 22 1 32 -1 23 -4z m-1581 -190
c-3 -10 -5 -4 -5 12 0 17 2 24 5 18 2 -7 2 -21 0 -30z m2072 5 c-2 -28 -2 -29
-6 -8 -3 14 -10 28 -17 32 -7 5 -5 8 7 8 13 0 17 -8 16 -32z m-1282 -65 c-3
-10 -5 -2 -5 17 0 19 2 27 5 18 2 -10 2 -26 0 -35z m1280 -20 c-3 -10 -5 -2
-5 17 0 19 2 27 5 18 2 -10 2 -26 0 -35z m-1280 -155 c-2 -29 -3 -8 -3 47 0
55 1 79 3 53 2 -26 2 -71 0 -100z m741 115 c-38 -2 -98 -2 -135 0 -38 2 -7 3
67 3 74 0 105 -1 68 -3z m-2445 -10 c-29 -3 -43 -9 -46 -21 -3 -12 -5 -11 -6
6 -1 20 3 22 47 20 l47 -1 -42 -4z m195 0 c-21 -2 -57 -2 -80 0 -24 2 -7 4 37
4 44 0 63 -2 43 -4z m98 -5 c5 -7 3 -8 -6 -3 -9 6 -11 4 -6 -4 5 -7 15 -10 25
-7 13 5 13 3 -2 -8 -12 -9 -15 -16 -7 -21 8 -5 8 -11 -1 -21 -19 -23 -24 -17
-26 31 -1 43 8 57 23 33z m80 -18 c-1 -26 -14 -44 -17 -22 0 4 -2 17 -3 30 -2
12 3 22 9 22 7 0 12 -13 11 -30z m107 23 c-7 -2 -21 -2 -30 0 -10 3 -4 5 12 5
17 0 24 -2 18 -5z m1707 -73 l0 -80 -42 2 -43 1 38 4 37 4 0 75 c0 41 2 74 5
74 3 0 5 -36 5 -80z m928 73 c-10 -2 -26 -2 -35 0 -10 3 -2 5 17 5 19 0 27 -2
18 -5z m165 0 c-7 -2 -21 -2 -30 0 -10 3 -4 5 12 5 17 0 24 -2 18 -5z m-23
-17 c0 -3 -4 -8 -10 -11 -5 -3 -10 -1 -10 4 0 6 5 11 10 11 6 0 10 -2 10 -4z
m-3303 -88 c-2 -13 -4 -3 -4 22 0 25 2 35 4 23 2 -13 2 -33 0 -45z m1732 -40
c1 -5 -24 -8 -56 -8 -65 0 -68 8 -5 11 35 2 42 6 43 23 0 21 0 21 9 1 5 -11 9
-23 9 -27z m-606 -5 c-153 -3 -173 -5 -173 -20 0 -9 -3 -14 -6 -10 -4 3 -4 13
-1 22 6 13 31 15 179 13 l173 -2 -172 -3z m1294 -9 c-3 -3 -12 -4 -19 -1 -8 3
-5 6 6 6 11 1 17 -2 13 -5z m-1470 -71 c-3 -10 -5 -4 -5 12 0 17 2 24 5 18 2
-7 2 -21 0 -30z m-507 -43 c6 -11 8 -20 6 -20 -3 0 -10 9 -16 20 -6 11 -8 20
-6 20 3 0 10 -9 16 -20z m-57 -24 c4 -10 1 -13 -8 -9 -8 3 -12 9 -9 14 7 12
11 11 17 -5z m-701 -73 c-5 -101 -9 -111 -11 -25 0 45 2 82 7 82 4 0 6 -26 4
-57z m2875 10 c-3 -10 -5 -4 -5 12 0 17 2 24 5 18 2 -7 2 -21 0 -30z m-2302
17 c-3 -5 -13 -10 -21 -10 -8 0 -14 5 -14 10 0 6 9 10 21 10 11 0 17 -4 14
-10z m2302 -87 c-3 -10 -5 -2 -5 17 0 19 2 27 5 18 2 -10 2 -26 0 -35z m-3049
-49 c-4 -3 -38 -5 -77 -5 l-71 0 -3 -752 -2 -752 -3 758 -2 757 82 0 c45 0 79
-3 76 -6z m1762 -154 c0 -146 -2 -160 -17 -159 -11 0 -13 3 -5 6 9 3 12 45 12
159 0 85 2 154 5 154 3 0 5 -72 5 -160z m1067 154 c-3 -3 -12 -4 -19 -1 -8 3
-5 6 6 6 11 1 17 -2 13 -5z m-100 -116 c-2 -24 -4 -7 -4 37 0 44 2 63 4 43 2
-21 2 -57 0 -80z m-1130 -245 c-3 -10 -5 -2 -5 17 0 19 2 27 5 18 2 -10 2 -26
0 -35z m0 -180 c-2 -32 -3 -8 -3 52 0 61 1 87 3 58 2 -29 2 -78 0 -110z m1290
-45 c-1 -40 -3 -10 -3 67 0 77 1 110 3 73 2 -37 2 -100 0 -140z m-2219 7 c-10
-18 -10 -19 7 -5 15 13 19 12 36 -9 11 -13 19 -18 19 -12 0 6 8 11 18 11 14 0
15 -2 2 -10 -8 -5 -10 -10 -4 -10 5 0 14 4 20 10 6 6 13 3 21 -8 10 -17 5 -18
-68 -20 l-79 -1 0 29 c0 17 5 30 13 30 8 0 7 3 -3 10 -12 7 -10 9 7 7 18 -1
20 -4 11 -22z m932 -40 c0 -9 -10 -15 -26 -15 -14 0 -23 4 -19 10 4 6 10 8 15
5 5 -3 11 -1 15 5 9 14 15 12 15 -5z m-60 -5 c0 -5 -8 -10 -17 -10 -15 0 -16
2 -3 10 19 12 20 12 20 0z m-943 -30 c6 -8 15 -12 19 -7 4 4 2 7 -4 7 -7 0
-12 5 -12 10 0 21 30 9 31 -12 0 -13 2 -33 5 -45 3 -17 0 -20 -18 -15 -13 3
-17 7 -10 10 6 2 12 8 12 13 0 6 -5 7 -11 3 -6 -3 -15 -1 -19 5 -4 7 -21 13
-38 13 -18 1 -32 5 -32 10 0 5 4 7 9 3 6 -3 16 1 23 9 16 17 29 16 45 -4z
m840 -278 c-1 -53 -3 -7 -3 103 0 110 2 154 3 97 2 -57 2 -147 0 -200z m-927
278 c0 -5 -7 -10 -15 -10 -8 0 -15 5 -15 10 0 6 7 10 15 10 8 0 15 -4 15 -10z
m-15 -41 c-5 -16 -4 -19 5 -14 9 6 11 4 4 -6 -4 -8 -9 -20 -10 -27 -6 -34 -14
-21 -14 21 0 27 5 47 11 47 6 0 8 -9 4 -21z m2392 -36 c-3 -10 -5 -4 -5 12 0
17 2 24 5 18 2 -7 2 -21 0 -30z m0 -55 c-3 -7 -5 -2 -5 12 0 14 2 19 5 13 2
-7 2 -19 0 -25z m241 -800 l77 -3 1 -45 1 -45 -4 43 -4 42 -80 0 -79 0 2 403
3 402 2 -397 3 -397 78 -3z m-1691 490 c-2 -13 -4 -3 -4 22 0 25 2 35 4 23 2
-13 2 -33 0 -45z m-160 -320 c-1 -57 -3 -11 -3 102 0 113 2 159 3 103 2 -57 2
-149 0 -205z m-1430 -260 c-2 -29 -3 -8 -3 47 0 55 1 79 3 53 2 -26 2 -71 0
-100z m3360 -100 c-2 -18 -4 -4 -4 32 0 36 2 50 4 33 2 -18 2 -48 0 -65z
m-2087 -38 c0 -55 -3 -100 -7 -100 -5 0 -7 45 -5 100 2 55 5 100 8 100 2 0 4
-45 4 -100z m-1113 -409 c86 -1 159 -4 162 -6 2 -3 -71 -5 -162 -5 l-167 0 2
253 3 252 2 -247 3 -246 157 -1z m953 164 c0 -10 -9 -15 -27 -14 -24 2 -25 2
-5 6 12 2 22 9 22 14 0 5 2 9 5 9 3 0 5 -7 5 -15z m-117 -12 l-43 -4 -2 -62
-2 -62 -3 54 c-6 75 -1 81 49 79 l43 -1 -42 -4z m2565 -156 l37 -4 -42 -1 -43
-2 2 68 2 67 3 -62 4 -62 37 -4z m-2611 1 c-3 -8 -6 -5 -6 6 -1 11 2 17 5 13
3 -3 4 -12 1 -19z m2786 -5 c-23 -2 -64 -2 -90 0 -26 2 -7 3 42 3 50 0 71 -1
48 -3z m134 1 c-3 -3 -12 -4 -19 -1 -8 3 -5 6 6 6 11 1 17 -2 13 -5z m601
-596 l-3 -273 -2 265 c-3 196 -7 266 -16 272 -8 5 -7 8 6 8 16 0 17 -19 15
-272z m-311 -20 c-2 -13 -4 -3 -4 22 0 25 2 35 4 23 2 -13 2 -33 0 -45z
m-4155 -85 c-5 -101 -9 -111 -11 -25 0 45 2 82 7 82 4 0 6 -26 4 -57z m148 40
c0 -12 -3 -14 -8 -7 -4 7 -16 14 -27 17 -15 4 -14 5 8 6 20 1 27 -4 27 -16z
m4000 -45 c0 -65 -10 -77 -12 -14 -1 20 -5 36 -10 36 -4 0 -8 -5 -8 -10 0 -6
-8 -5 -20 2 -19 12 -19 14 -3 26 20 14 1 16 -32 3 -12 -5 -26 -4 -34 3 -12 9
-13 8 -8 -6 5 -13 1 -18 -13 -18 -13 0 -20 7 -20 20 0 18 7 20 80 20 l80 0 0
-62z m-72 -3 c-3 -3 -9 2 -12 12 -6 14 -5 15 5 6 7 -7 10 -15 7 -18z m-65 -4
c-4 -3 -11 -10 -15 -15 -5 -5 -8 0 -8 12 0 15 4 20 16 15 9 -3 12 -9 7 -12z
m-3866 -68 c-3 -10 -5 -2 -5 17 0 19 2 27 5 18 2 -10 2 -26 0 -35z m31 -51 c2
-7 -5 -12 -17 -12 -14 0 -19 5 -14 15 6 17 25 15 31 -3z m130 -314 l-2 -333
-6 255 c-5 249 -3 410 6 410 2 0 3 -150 2 -332z m-148 272 c0 -11 -2 -20 -4
-20 -2 0 -6 9 -9 20 -3 11 -1 20 4 20 5 0 9 -9 9 -20z m3677 -62 c-2 -18 -4
-6 -4 27 0 33 2 48 4 33 2 -15 2 -42 0 -60z m630 5 c-3 -10 -5 -4 -5 12 0 17
2 24 5 18 2 -7 2 -21 0 -30z m0 -870 c-1 -158 -2 -31 -2 282 0 314 1 443 2
288 2 -155 2 -411 0 -570z m-4630 455 c-1 -46 -3 -11 -3 77 0 88 2 125 3 83 2
-42 2 -114 0 -160z m3680 135 c-3 -10 -5 -4 -5 12 0 17 2 24 5 18 2 -7 2 -21
0 -30z m0 -45 c-3 -8 -6 -5 -6 6 -1 11 2 17 5 13 3 -3 4 -12 1 -19z m26 -661
c19 -4 18 -4 -5 -6 l-28 -1 2 198 3 197 2 -192 c3 -189 4 -192 26 -196z
m-3354 200 c8 -10 7 -14 -2 -14 -8 0 -14 6 -14 14 0 7 1 13 2 13 2 0 8 -6 14
-13z m121 -17 c0 -16 -4 -30 -8 -30 -5 0 -7 14 -4 30 2 17 6 30 8 30 2 0 4
-13 4 -30z m-70 -24 c8 -2 -9 -4 -37 -5 -29 0 -53 3 -53 7 0 7 52 6 90 -2z
m-563 -28 c-3 -8 -6 -5 -6 6 -1 11 2 17 5 13 3 -3 4 -12 1 -19z m61 -451 l57
-3 -62 -2 -63 -2 2 218 3 217 2 -212 3 -212 58 -4z m411 276 c0 -82 -4 -140
-8 -129 -4 10 -6 75 -5 145 2 138 2 131 9 131 3 0 5 -66 4 -147z m-152 35 c-3
-7 -5 -2 -5 12 0 14 2 19 5 13 2 -7 2 -19 0 -25z m0 -50 c-3 -7 -5 -2 -5 12 0
14 2 19 5 13 2 -7 2 -19 0 -25z m3698 -106 c-3 -3 -11 0 -18 7 -9 10 -8 11 6
5 10 -3 15 -9 12 -12z m198 1 c-18 -2 -48 -2 -65 0 -18 2 -4 4 32 4 36 0 50
-2 33 -4z m74 1 c-3 -3 -12 -4 -19 -1 -8 3 -5 6 6 6 11 1 17 -2 13 -5z m-3684
-11 c-7 -2 -19 -2 -25 0 -7 3 -2 5 12 5 14 0 19 -2 13 -5z m347 -2 c0 -4 -11
-6 -25 -3 -19 3 -25 0 -26 -14 -1 -17 -2 -17 -6 -2 -4 15 -21 18 -136 21
l-132 3 163 2 c89 1 162 -2 162 -7z m0 -31 c0 -5 -2 -10 -4 -10 -3 0 -8 5 -11
10 -3 6 -1 10 4 10 6 0 11 -4 11 -10z m-297 -117 c-56 -2 -151 -2 -210 0 -59
1 -13 3 102 3 116 0 164 -2 108 -3z m140 0 c-7 -2 -19 -2 -25 0 -7 3 -2 5 12
5 14 0 19 -2 13 -5z m3369 -78 l-4 -75 286 2 c157 1 289 -2 293 -5 3 -4 -127
-7 -290 -7 l-297 0 0 -80 0 -80 -160 0 -160 0 2 83 2 82 3 -77 4 -78 148 0
149 0 7 155 c4 85 10 155 14 155 3 0 5 -34 3 -75z m276 68 c-21 -2 -57 -2 -80
0 -24 2 -7 4 37 4 44 0 63 -2 43 -4z m348 -139 c-3 -8 -11 -14 -18 -13 -10 0
-10 2 0 6 7 3 13 28 14 66 l2 62 3 -54 c2 -29 2 -60 -1 -67z m-4784 -89 l-4
-75 31 0 c20 0 31 5 31 14 0 8 4 17 9 20 5 4 7 -3 4 -15 -5 -18 -2 -20 38 -15
24 3 45 10 47 16 5 14 22 13 22 -2 0 -9 19 -13 61 -14 47 -1 59 2 55 12 -3 8
-1 14 4 14 6 0 10 -6 10 -14 0 -11 24 -14 117 -15 64 -1 119 -4 122 -6 2 -3
-122 -5 -277 -5 l-282 0 0 80 c0 44 3 80 8 80 4 0 6 -34 4 -75z m76 68 c-10
-2 -28 -2 -40 0 -13 2 -5 4 17 4 22 1 32 -1 23 -4z m708 -26 c1 -24 1 -24 -3
-3 -2 14 -12 27 -21 30 -12 3 -11 4 3 3 14 -2 20 -10 21 -30z m-699 -3 c-3 -3
-12 -4 -19 -1 -8 3 -5 6 6 6 11 1 17 -2 13 -5z m-20 -36 c-3 -8 -6 -5 -6 6 -1
11 2 17 5 13 3 -3 4 -12 1 -19z m720 -40 c-3 -7 -5 -2 -5 12 0 14 2 19 5 13 2
-7 2 -19 0 -25z m-540 6 c-3 -3 -12 -4 -19 -1 -8 3 -5 6 6 6 11 1 17 -2 13 -5z
m46 -1 c-7 -2 -19 -2 -25 0 -7 3 -2 5 12 5 14 0 19 -2 13 -5z m-173 -13 c0 -5
-4 -10 -10 -10 -5 0 -10 5 -10 10 0 6 5 10 10 10 6 0 10 -4 10 -10z m518 -112
l3 -77 47 -4 47 -3 -52 -2 -53 -2 0 79 c0 67 -3 80 -17 85 -14 4 -14 4 2 3 18
-2 20 -11 23 -79z m310 -10 l-2 -83 -3 77 c-4 70 -6 77 -26 81 -18 4 -17 5 6
6 l27 1 -2 -82z m-135 -75 c-13 -2 -35 -2 -50 0 -16 2 -5 4 22 4 28 0 40 -2
28 -4z"/>
<path d="M10168 17693 c7 -3 16 -2 19 1 4 3 -2 6 -13 5 -11 0 -14 -3 -6 -6z"/>
<path d="M10208 17663 c7 -3 16 -2 19 1 4 3 -2 6 -13 5 -11 0 -14 -3 -6 -6z"/>
<path d="M10168 17643 c7 -3 16 -2 19 1 4 3 -2 6 -13 5 -11 0 -14 -3 -6 -6z"/>
<path d="M10208 17633 c7 -3 16 -2 19 1 4 3 -2 6 -13 5 -11 0 -14 -3 -6 -6z"/>
<path d="M10165 17620 c-3 -6 1 -7 9 -4 18 7 21 14 7 14 -6 0 -13 -4 -16 -10z"/>
<path d="M9645 17500 c-3 -5 -1 -10 4 -10 6 0 11 5 11 10 0 6 -2 10 -4 10 -3
0 -8 -4 -11 -10z"/>
<path d="M11785 17420 c-22 -4 -34 -8 -27 -9 7 0 10 -5 7 -11 -3 -5 1 -10 9
-10 9 0 16 5 16 10 0 6 9 10 20 10 11 0 20 5 20 10 0 6 -1 9 -2 9 -2 -1 -21
-5 -43 -9z"/>
<path d="M9752 17070 c0 -14 2 -19 5 -12 2 6 2 18 0 25 -3 6 -5 1 -5 -13z"/>
<path d="M9760 16400 l0 -80 -80 0 -80 0 0 -80 0 -80 480 0 480 0 0 80 0 80
-80 0 -80 0 0 80 0 80 -320 0 -320 0 0 -80z"/>
<path d="M10663 16153 l47 -4 0 -149 0 -149 -74 5 c-47 3 -77 1 -81 -5 -4 -8
22 -11 79 -11 l86 0 0 160 0 160 -52 -2 -53 -2 48 -3z"/>
<path d="M10053 16113 c9 -2 23 -2 30 0 6 3 -1 5 -18 5 -16 0 -22 -2 -12 -5z"/>
<path d="M10150 16110 l-25 -6 25 -5 c28 -6 50 -1 50 10 0 9 -16 9 -50 1z"/>
<path d="M10130 16079 c0 -4 -12 -10 -27 -12 l-28 -4 28 -2 c16 0 25 -5 22
-11 -3 -6 1 -7 9 -4 9 3 14 10 11 14 -3 5 7 10 22 12 28 3 28 4 -4 9 -18 3
-33 2 -33 -2z"/>
<path d="M10215 16080 c-3 -5 -3 -10 2 -11 4 0 -1 -4 -12 -9 -19 -8 -19 -9 2
-9 16 -1 21 4 20 19 -1 23 -3 24 -12 10z"/>
<path d="M9980 16059 c0 -5 5 -7 10 -4 6 3 10 8 10 11 0 2 -4 4 -10 4 -5 0
-10 -5 -10 -11z"/>
<path d="M10035 16060 c-3 -6 1 -7 9 -4 18 7 21 14 7 14 -6 0 -13 -4 -16 -10z"/>
<path d="M10240 16066 c0 -9 30 -14 35 -6 4 6 -3 10 -14 10 -12 0 -21 -2 -21
-4z"/>
<path d="M9760 15920 l0 -80 80 0 80 0 0 -80 0 -80 160 0 160 0 0 80 0 80 80
0 80 0 0 80 0 80 -320 0 -320 0 0 -80z"/>
<path d="M10456 15907 c3 -10 9 -15 12 -12 3 3 0 11 -7 18 -10 9 -11 8 -5 -6z"/>
<path d="M10580 15900 l-45 -7 48 -1 c26 -1 47 3 47 8 0 6 -1 9 -2 8 -2 0 -23
-4 -48 -8z"/>
<path d="M10426 15888 c3 -5 10 -6 15 -3 13 9 11 12 -6 12 -8 0 -12 -4 -9 -9z"/>
<path d="M10463 15883 c-13 -10 -14 -13 -2 -14 8 0 6 -4 -6 -8 -12 -5 -23 -4
-28 3 -6 7 -7 6 -4 -4 5 -19 93 -26 113 -9 16 13 19 33 4 24 -5 -3 -10 0 -10
7 0 17 -44 17 -67 1z m37 -13 c0 -5 -5 -10 -11 -10 -5 0 -7 5 -4 10 3 6 8 10
11 10 2 0 4 -4 4 -10z"/>
<path d="M9730 15879 c0 -5 5 -7 10 -4 6 3 10 8 10 11 0 2 -4 4 -10 4 -5 0
-10 -5 -10 -11z"/>
<path d="M9600 15760 l0 -80 80 0 80 0 0 80 0 80 -80 0 -80 0 0 -80z"/>
<path d="M10523 15765 c0 -22 2 -30 4 -17 2 12 2 30 0 40 -3 9 -5 -1 -4 -23z"/>
<path d="M10470 15770 c0 -5 5 -10 11 -10 5 0 7 5 4 10 -3 6 -8 10 -11 10 -2
0 -4 -4 -4 -10z"/>
<path d="M10475 15740 c3 -5 8 -10 11 -10 2 0 4 5 4 10 0 6 -5 10 -11 10 -5 0
-7 -4 -4 -10z"/>
<path d="M10401 15724 c0 -11 3 -14 6 -6 3 7 2 16 -1 19 -3 4 -6 -2 -5 -13z"/>
<path d="M10502 15700 c0 -14 2 -19 5 -12 2 6 2 18 0 25 -3 6 -5 1 -5 -13z"/>
<path d="M9292 15400 c0 -19 2 -27 5 -17 2 9 2 25 0 35 -3 9 -5 1 -5 -18z"/>
<path d="M9344 15422 c-16 -6 -19 -12 -13 -27 l8 -20 1 20 1 20 9 -20 c5 -11
9 -18 10 -15 2 6 7 51 6 49 -1 -1 -11 -4 -22 -7z"/>
<path d="M10400 15280 l0 -80 80 0 80 0 0 80 0 80 -80 0 -80 0 0 -80z"/>
<path d="M11410 16113 c8 -3 18 -11 22 -17 5 -7 8 -4 8 7 0 11 -7 17 -22 16
-16 0 -18 -2 -8 -6z"/>
<path d="M11453 16107 c0 -8 6 -14 14 -14 7 0 13 6 13 14 0 7 -6 13 -13 13 -8
0 -14 -6 -14 -13z"/>
<path d="M11490 16103 c0 -15 2 -16 10 -3 7 11 10 12 10 2 0 -17 42 -12 48 6
2 8 -8 12 -32 12 -28 0 -36 -4 -36 -17z"/>
<path d="M11570 16113 c0 -5 5 -15 10 -23 8 -13 10 -13 10 2 0 9 6 19 13 21 6
3 2 6 -10 6 -13 1 -23 -2 -23 -6z"/>
<path d="M11618 16060 c-3 -19 -2 -39 3 -44 6 -6 9 -5 9 4 0 7 8 23 18 34 15
18 15 19 0 8 -14 -11 -17 -10 -20 10 -3 18 -5 16 -10 -12z"/>
<path d="M11450 16070 c0 -5 7 -7 15 -4 8 4 15 8 15 10 0 2 -7 4 -15 4 -8 0
-15 -4 -15 -10z"/>
<path d="M11505 16070 c3 -5 8 -10 11 -10 2 0 4 5 4 10 0 6 -5 10 -11 10 -5 0
-7 -4 -4 -10z"/>
<path d="M11531 16064 c0 -11 3 -14 6 -6 3 7 2 16 -1 19 -3 4 -6 -2 -5 -13z"/>
<path d="M11428 16043 c7 -3 16 -2 19 1 4 3 -2 6 -13 5 -11 0 -14 -3 -6 -6z"/>
<path d="M11488 16043 c6 -2 18 -2 25 0 6 3 1 5 -13 5 -14 0 -19 -2 -12 -5z"/>
<path d="M11581 16024 c0 -11 3 -14 6 -6 3 7 2 16 -1 19 -3 4 -6 -2 -5 -13z"/>
<path d="M5280 15120 l0 -80 -87 -1 -88 -2 80 -10 c44 -5 82 -13 85 -17 3 -5
19 -10 35 -13 l30 -4 -32 -2 c-18 0 -33 -5 -33 -11 0 -13 110 -13 130 0 11 7
11 10 2 10 -7 0 -10 5 -7 10 10 15 23 12 28 -7 3 -10 5 33 6 95 l1 112 -75 0
-75 0 0 -80z m140 -90 c0 -5 -5 -10 -11 -10 -5 0 -7 5 -4 10 3 6 8 10 11 10 2
0 4 -4 4 -10z"/>
<path d="M5068 15033 c6 -2 18 -2 25 0 6 3 1 5 -13 5 -14 0 -19 -2 -12 -5z"/>
<path d="M5223 14998 c2 -7 10 -13 17 -13 7 0 15 6 18 13 2 7 -5 12 -18 12
-13 0 -20 -5 -17 -12z"/>
<path d="M5421 14954 c0 -11 3 -14 6 -6 3 7 2 16 -1 19 -3 4 -6 -2 -5 -13z"/>
<path d="M5267 14946 c-4 -10 -1 -13 8 -9 8 3 12 9 9 14 -7 12 -11 11 -17 -5z"/>
<path d="M5315 14953 c11 -3 24 -10 28 -17 6 -7 7 -6 4 4 -2 8 -14 16 -28 17
-19 1 -20 1 -4 -4z"/>
<path d="M5127 14938 c-7 -5 -3 -8 11 -8 13 0 20 -4 17 -10 -4 -6 5 -10 19
-10 14 0 26 5 26 11 0 8 6 7 17 -2 11 -10 14 -10 9 -1 -4 7 -2 12 5 12 7 0 9
3 5 7 -9 10 -95 10 -109 1z"/>
<path d="M5130 14890 c0 -5 7 -10 16 -10 8 0 12 5 9 10 -3 6 -10 10 -16 10 -5
0 -9 -4 -9 -10z"/>
<path d="M5185 14890 c-19 -8 -19 -9 3 -9 12 -1 22 4 22 9 0 6 -1 10 -2 9 -2
0 -12 -4 -23 -9z"/>
<path d="M5215 14820 c3 -5 8 -10 11 -10 2 0 4 5 4 10 0 6 -5 10 -11 10 -5 0
-7 -4 -4 -10z"/>
<path d="M5300 14739 c0 -5 5 -7 10 -4 6 3 10 8 10 11 0 2 -4 4 -10 4 -5 0
-10 -5 -10 -11z"/>
<path d="M5263 14685 c0 -8 4 -12 9 -9 5 3 6 10 3 15 -9 13 -12 11 -12 -6z"/>
<path d="M9087 15730 c3 -11 7 -20 9 -20 2 0 4 9 4 20 0 11 -4 20 -9 20 -5 0
-7 -9 -4 -20z"/>
<path d="M9440 13440 l0 -160 80 0 80 0 0 -160 0 -160 75 0 74 0 4 63 c2 34 4
-38 5 -160 l2 -223 73 0 74 0 6 122 c4 66 7 175 7 240 l0 119 -82 -3 -83 -3 3
83 3 82 -80 0 -81 0 0 160 0 160 -80 0 -80 0 0 -160z"/>
<path d="M10080 12880 l0 -80 80 0 80 0 0 80 0 80 -80 0 -80 0 0 -80z"/>
<path d="M10401 11256 c2 -25 7 -42 12 -39 5 3 7 14 4 24 -3 11 -2 19 2 19 4
0 7 9 7 20 0 11 -6 20 -14 20 -9 0 -12 -13 -11 -44z"/>
<path d="M8320 12720 l0 -80 80 0 80 0 0 80 0 80 -80 0 -80 0 0 -80z"/>
<path d="M8800 11600 l0 -80 80 0 80 0 0 -80 0 -80 80 0 80 0 0 80 0 80 -80 0
-80 0 0 80 0 80 -80 0 -80 0 0 -80z"/>
<path d="M9280 11440 l0 -80 80 0 80 0 0 80 0 80 -80 0 -80 0 0 -80z"/>
<path d="M8960 11120 l0 -80 80 0 80 0 0 80 0 80 -80 0 -80 0 0 -80z"/>
<path d="M9280 11120 l0 -80 80 0 80 0 0 80 0 80 -80 0 -80 0 0 -80z"/>
<path d="M9600 11120 l0 -80 79 0 79 0 4 70 c2 39 2 75 0 80 -2 6 -39 10 -83
10 l-79 0 0 -80z"/>
<path d="M9767 11033 c-11 -11 -8 -48 6 -62 6 -8 7 -11 1 -8 -8 5 -12 -8 -12
-38 l-1 -45 79 0 80 0 0 81 0 80 -27 -2 c-16 -2 -33 -7 -40 -12 -6 -5 -14 -3
-19 4 -5 9 -10 7 -15 -7 -7 -17 -8 -17 -8 -1 -1 17 -31 24 -44 10z"/>
<path d="M9280 10800 l0 -80 80 0 80 0 0 -80 0 -80 -80 0 -80 0 0 -80 0 -80
80 0 80 0 0 -80 0 -80 -80 0 -80 0 0 -80 0 -80 80 0 80 0 0 -80 0 -80 -80 0
-80 0 0 80 0 80 -80 0 -80 0 0 -80 0 -80 -80 0 -80 0 0 -80 c0 -64 3 -80 15
-80 8 0 15 -6 15 -12 0 -10 2 -10 8 -1 9 14 54 13 64 -2 5 -6 8 -6 8 3 0 6 11
12 25 12 25 0 25 1 25 80 l0 80 80 0 80 0 0 -80 0 -80 80 0 80 0 0 -80 0 -80
-80 0 -80 0 0 -80 0 -80 80 0 80 0 0 -80 0 -80 -51 0 c-31 0 -48 -4 -44 -10 4
-6 11 -8 16 -5 16 10 10 -66 -6 -82 -9 -8 -19 -12 -23 -8 -4 3 1 11 10 16 10
5 15 16 11 24 -4 13 -9 11 -24 -6 -11 -12 -19 -26 -19 -31 0 -4 -4 -8 -8 -8
-5 0 -8 25 -8 55 1 30 -2 55 -6 55 -5 0 -8 -34 -8 -75 l0 -75 80 0 80 0 0 75
0 75 80 0 80 0 0 -80 0 -80 80 0 80 0 0 -80 0 -80 -80 0 -80 0 0 -80 0 -80 80
0 80 0 0 -80 0 -80 80 0 80 0 0 -80 0 -80 -80 0 -80 0 0 -80 0 -80 -80 0 -80
0 0 -80 0 -80 -80 0 -80 0 0 -80 0 -80 -80 0 -80 0 0 -80 0 -80 80 0 80 0 0
80 0 80 80 0 80 0 0 -80 0 -80 80 0 80 0 0 80 0 80 80 0 80 0 0 -80 0 -80 80
0 80 0 0 -80 0 -80 80 0 80 0 0 80 0 80 -80 0 -80 0 0 80 0 80 80 0 80 0 0 80
0 80 80 0 80 0 0 80 0 80 -80 0 -80 0 0 80 0 80 -80 0 -80 0 0 80 0 80 80 0
80 0 0 80 0 80 80 0 80 0 0 80 0 80 -80 0 -80 0 0 80 0 80 80 0 80 0 0 80 0
80 -80 0 -80 0 0 80 0 80 -80 0 -80 0 0 80 0 80 80 0 80 0 0 80 0 80 80 0 80
0 0 80 0 80 -80 0 -80 0 0 80 0 80 80 0 80 0 0 80 0 80 -80 0 -80 0 0 80 0 80
-80 0 -80 0 0 80 0 80 -80 0 -80 0 0 80 0 80 -80 0 -80 0 0 -80 0 -80 -80 0
-80 0 0 80 0 80 -80 0 -80 0 0 80 0 80 -80 0 -80 0 0 -80z m320 -320 l0 -80
80 0 80 0 0 80 0 80 80 0 80 0 0 -80 0 -80 80 0 80 0 0 -80 0 -80 80 0 80 0 0
-80 0 -80 -80 0 -80 0 0 -80 0 -80 80 0 c92 0 85 10 81 -122 l-1 -38 -80 0
-80 0 0 -80 0 -80 -80 0 -80 0 0 -80 0 -80 80 0 80 0 0 -80 0 -80 -80 0 -80 0
0 -80 0 -80 80 0 80 0 0 -80 0 -80 80 0 80 0 0 -80 0 -80 -80 0 -80 0 0 -80 0
-80 -80 0 -80 0 0 80 0 80 -80 0 -80 0 0 80 0 80 80 0 80 0 0 80 0 80 -80 0
-80 0 0 80 0 80 -80 0 -80 0 0 80 0 80 -80 0 -80 0 0 80 0 80 80 0 80 0 0 80
0 80 -80 0 -80 0 0 80 0 80 80 0 80 0 0 80 0 80 -80 0 -80 0 0 80 0 80 80 0
80 0 0 80 0 80 -80 0 -80 0 0 80 0 80 80 0 80 0 0 -80z m-200 -1231 c0 -5 -4
-9 -10 -9 -5 0 -10 7 -10 16 0 8 5 12 10 9 6 -3 10 -10 10 -16z m680 -849 l0
-80 80 0 80 0 0 -80 0 -80 -80 0 -80 0 0 -80 0 -80 -80 0 -80 0 0 80 0 80 -80
0 -80 0 0 -80 0 -80 -80 0 -80 0 0 80 0 80 80 0 80 0 0 80 0 80 80 0 80 0 0
80 0 80 80 0 80 0 0 -80z"/>
<path d="M9760 10320 l0 -80 -80 0 -80 0 0 -80 0 -80 80 0 80 0 0 -80 0 -80
-80 0 -80 0 0 -80 0 -80 80 0 80 0 0 -80 0 -80 -80 0 -80 0 0 -80 0 -80 80 0
80 0 0 -80 0 -80 80 0 80 0 0 80 0 80 -80 0 -80 0 0 80 0 80 80 0 80 0 0 80 0
80 80 0 80 0 0 80 0 80 -80 0 -80 0 0 80 0 80 80 0 80 0 0 80 0 80 -80 0 -80
0 0 80 0 80 -80 0 -80 0 0 -80z m160 -160 l0 -80 -80 0 -80 0 0 80 0 80 80 0
80 0 0 -80z m0 -320 l0 -80 -80 0 -80 0 0 80 0 80 80 0 80 0 0 -80z"/>
<path d="M9920 8880 l0 -80 80 0 80 0 0 80 0 80 -80 0 -80 0 0 -80z"/>
<path d="M9920 8240 l0 -80 80 0 80 0 0 80 0 80 -80 0 -80 0 0 -80z"/>
<path d="M8970 9709 c0 -5 5 -7 10 -4 6 3 10 8 10 11 0 2 -4 4 -10 4 -5 0 -10
-5 -10 -11z"/>
<path d="M8960 9520 l0 -80 80 0 80 0 0 80 0 80 -80 0 -80 0 0 -80z"/>
<path d="M9322 9260 c0 -14 2 -19 5 -12 2 6 2 18 0 25 -3 6 -5 1 -5 -13z"/>
<path d="M9336 8462 c-3 -5 1 -9 9 -9 8 0 15 4 15 9 0 4 -4 8 -9 8 -6 0 -12
-4 -15 -8z"/>
<path d="M8960 7920 l0 -80 80 0 80 0 0 80 0 80 -80 0 -80 0 0 -80z"/>
<path d="M8960 7600 l0 -80 80 0 80 0 0 80 0 80 -80 0 -80 0 0 -80z"/>
<path d="M9280 7600 l0 -80 80 0 80 0 0 80 0 80 -80 0 -80 0 0 -80z"/>
<path d="M11761 11714 c0 -11 3 -14 6 -6 3 7 2 16 -1 19 -3 4 -6 -2 -5 -13z"/>
<path d="M12531 13103 c0 -11 3 -13 6 -5 2 6 9 10 14 6 5 -3 9 0 9 5 0 6 -7
11 -15 11 -8 0 -15 -8 -14 -17z"/>
<path d="M12550 13073 c0 -8 5 -11 10 -8 6 4 10 -7 10 -25 0 -17 4 -29 8 -26
14 8 1 73 -14 73 -8 0 -14 -7 -14 -14z"/>
<path d="M12532 13035 c0 -27 2 -44 5 -36 4 10 7 10 13 2 4 -7 7 3 7 21 1 26
-1 29 -7 13 -6 -17 -8 -14 -12 15 -4 28 -5 25 -6 -15z"/>
<path d="M12600 12989 c0 -11 -4 -17 -10 -14 -5 3 -10 1 -10 -4 0 -6 8 -11 19
-11 14 0 17 6 13 25 -5 30 -12 33 -12 4z"/>
<path d="M12410 12980 l-35 -7 38 -2 c20 0 37 4 37 9 0 6 -1 9 -2 9 -2 -1 -19
-5 -38 -9z"/>
<path d="M12320 11920 l0 -80 80 0 80 0 0 80 0 80 -80 0 -80 0 0 -80z"/>
<path d="M6880 12560 l0 -80 160 0 160 0 0 -80 0 -80 80 0 80 0 0 -80 0 -80
80 0 80 0 0 80 0 80 -80 0 -80 0 0 80 0 80 -80 0 -80 0 0 80 0 80 -160 0 -160
0 0 -80z"/>
<path d="M15390 12300 c0 -5 5 -10 11 -10 5 0 7 5 4 10 -3 6 -8 10 -11 10 -2
0 -4 -4 -4 -10z"/>
<path d="M15452 12274 c-1 -23 -9 -43 -22 -54 -20 -17 -20 -19 -3 -22 12 -2
14 -6 6 -11 -6 -4 -19 0 -27 9 -9 8 -16 12 -16 7 0 -18 17 -29 48 -31 l32 -4
1 54 c1 44 3 48 8 23 4 -16 6 -38 5 -48 -2 -11 2 -17 9 -14 7 2 13 27 13 65 2
61 2 62 -25 62 -25 0 -28 -4 -29 -36z m38 16 c0 -5 -4 -10 -10 -10 -5 0 -10 5
-10 10 0 6 5 10 10 10 6 0 10 -4 10 -10z"/>
<path d="M15416 12272 c6 -4 14 -14 17 -22 4 -10 6 -8 6 8 1 15 -5 22 -16 22
-11 0 -14 -3 -7 -8z"/>
<path d="M15390 12237 c0 -10 8 -17 18 -17 9 0 13 4 7 8 -5 4 -13 11 -17 16
-5 5 -8 2 -8 -7z"/>
<path d="M15370 12180 c0 -5 5 -10 10 -10 6 0 10 5 10 10 0 6 -4 10 -10 10 -5
0 -10 -4 -10 -10z"/>
<path d="M14145 10060 c-3 -5 -1 -10 4 -10 6 0 11 5 11 10 0 6 -2 10 -4 10 -3
0 -8 -4 -11 -10z"/>
<path d="M14147 9995 c-4 -8 -2 -17 3 -20 6 -4 10 3 10 14 0 25 -6 27 -13 6z"/>
<path d="M14672 11165 c0 -16 2 -22 5 -12 2 9 2 23 0 30 -3 6 -5 -1 -5 -18z"/>
<path d="M14670 11111 c0 -6 4 -12 8 -15 5 -3 9 1 9 9 0 8 -4 15 -9 15 -4 0
-8 -4 -8 -9z"/>
<path d="M16150 10832 c0 -252 0 -258 -20 -258 -13 0 -19 5 -16 13 3 7 1 13
-4 13 -5 0 -11 8 -14 18 -3 9 -4 5 -2 -11 2 -15 -1 -30 -5 -33 -5 -3 -9 9 -9
26 0 24 -4 31 -14 27 -9 -4 -17 1 -19 11 -4 15 -5 15 -6 -1 0 -10 -5 -15 -11
-12 -6 4 -10 -8 -10 -29 l0 -36 70 0 70 0 0 265 c0 146 -2 265 -5 265 -3 0 -5
-116 -5 -258z"/>
<path d="M16552 10274 c-7 -8 -8 -14 -3 -14 10 0 25 19 20 25 -2 1 -10 -3 -17
-11z"/>
<path d="M15513 10108 l2 -33 77 -3 c62 -2 78 -6 81 -20 3 -12 5 -11 6 6 1 21
-2 22 -78 22 l-80 0 -5 30 c-6 30 -6 30 -3 -2z"/>
<path d="M15556 10003 c5 -5 12 -12 15 -16 3 -5 9 -2 12 7 5 12 0 16 -15 16
-12 0 -17 -3 -12 -7z"/>
<path d="M15647 9983 c-10 -9 -9 -53 2 -53 6 0 11 60 5 60 0 0 -4 -3 -7 -7z"/>
<path d="M11680 10640 l0 -80 -80 0 -80 0 0 -80 0 -80 -80 0 -80 0 0 -80 0
-80 80 0 80 0 0 -80 0 -80 80 0 80 0 0 -80 0 -80 -80 0 -80 0 0 -80 0 -80 80
0 80 0 0 80 0 80 80 0 80 0 0 -80 0 -80 80 0 80 0 0 -80 c0 -48 -4 -80 -10
-80 -6 0 -8 -12 -6 -26 3 -14 8 -86 12 -160 l7 -134 -82 0 -81 0 0 78 c0 42
-5 84 -10 92 -6 10 -10 11 -10 3 0 -9 -21 -13 -70 -13 l-70 0 0 -80 0 -80 -80
0 -80 0 0 -80 0 -80 80 0 80 0 0 -80 0 -80 -80 0 -80 0 0 -80 0 -80 80 0 80 0
0 -80 0 -80 80 0 80 0 0 80 0 80 80 0 80 0 0 80 0 80 -80 0 -80 0 0 80 0 80
80 0 80 0 0 80 0 80 80 0 80 0 0 240 0 240 -80 0 -80 0 0 80 0 80 80 0 80 0 0
80 0 80 -80 0 -80 0 0 80 0 80 80 0 80 0 0 80 0 80 -80 0 -80 0 0 80 0 80 80
0 80 0 0 80 0 80 -80 0 -80 0 0 -80 0 -80 -80 0 -80 0 0 80 0 80 -80 0 -80 0
0 -80z m160 -160 l0 -80 80 0 80 0 0 -80 0 -80 -80 0 -80 0 0 -80 0 -80 80 0
80 0 0 -80 0 -80 -80 0 -80 0 0 80 0 80 -80 0 -80 0 0 80 0 80 -80 0 -80 0 0
80 0 80 80 0 80 0 0 80 0 80 80 0 80 0 0 -80z m0 -1280 l0 -80 -80 0 -80 0 0
80 0 80 80 0 80 0 0 -80z m0 -320 l0 -80 -80 0 -80 0 0 80 0 80 80 0 80 0 0
-80z"/>
<path d="M11680 10320 l0 -80 80 0 80 0 0 80 0 80 -80 0 -80 0 0 -80z"/>
<path d="M11840 9585 c0 -8 4 -15 9 -15 5 0 11 7 15 15 3 9 0 15 -9 15 -8 0
-15 -7 -15 -15z"/>
<path d="M11905 9589 c-4 -5 1 -9 11 -9 11 0 15 -6 11 -20 -3 -11 -2 -18 3
-15 4 3 10 15 12 28 3 17 0 23 -14 24 -9 1 -20 -2 -23 -8z"/>
<path d="M11822 9560 c0 -19 2 -27 5 -17 2 9 2 25 0 35 -3 9 -5 1 -5 -18z"/>
<path d="M11520 8560 l0 -80 80 0 80 0 0 80 0 80 -80 0 -80 0 0 -80z"/>
<path d="M11840 8560 l0 -80 80 0 80 0 0 -80 0 -80 -80 0 -80 0 0 68 c0 83
-10 143 -21 136 -5 -3 -9 -14 -9 -25 0 -10 -5 -19 -11 -19 -5 0 -8 4 -5 8 2 4
1 14 -5 22 -5 10 -9 11 -9 3 0 -8 -15 -11 -41 -10 -22 2 -43 -2 -46 -7 -3 -5
-2 -7 3 -4 5 3 18 2 29 -3 16 -6 14 -8 -12 -8 l-33 -1 0 -80 0 -80 -80 0 -80
0 0 -80 0 -80 -80 0 -80 0 0 -80 0 -80 80 0 80 0 0 -80 0 -80 -80 0 -80 0 0
-80 0 -80 80 0 80 0 0 80 0 80 80 0 80 0 0 80 0 80 80 0 80 0 0 -80 0 -80 80
0 80 0 0 80 0 80 80 0 80 0 0 80 0 80 -80 0 -80 0 0 80 0 80 80 0 80 0 0 80 0
80 -80 0 -80 0 0 80 0 80 -80 0 -80 0 0 -80z m-63 -76 c-3 -3 -12 -4 -19 -1
-8 3 -5 6 6 6 11 1 17 -2 13 -5z m63 -244 l0 -80 80 0 80 0 0 -80 0 -80 -80 0
-80 0 0 80 0 80 -80 0 -80 0 0 -80 0 -80 -80 0 -80 0 0 80 0 80 80 0 80 0 0
80 0 80 80 0 80 0 0 -80z"/>
<path d="M11821 8614 c0 -11 3 -14 6 -6 3 7 2 16 -1 19 -3 4 -6 -2 -5 -13z"/>
<path d="M12320 8080 l0 -80 80 0 80 0 0 80 0 80 -80 0 -80 0 0 -80z"/>
<path d="M11888 7673 c7 -3 16 -2 19 1 4 3 -2 6 -13 5 -11 0 -14 -3 -6 -6z"/>
<path d="M12320 7520 l0 -160 80 0 80 0 0 160 0 160 -80 0 -80 0 0 -160z"/>
<path d="M14067 9863 c4 -10 2 -14 -5 -9 -6 3 -13 2 -17 -4 -3 -5 1 -10 10
-10 9 0 14 -4 11 -8 -3 -5 1 -9 8 -9 8 0 12 7 11 16 -2 9 -4 22 -4 29 -1 6 -5
12 -11 12 -5 0 -6 -7 -3 -17z"/>
<path d="M13937 9821 c-4 -17 -3 -21 5 -13 5 5 8 16 6 23 -3 8 -7 3 -11 -10z"/>
<path d="M14008 9823 c7 -3 16 -2 19 1 4 3 -2 6 -13 5 -11 0 -14 -3 -6 -6z"/>
<path d="M14015 9800 c-3 -5 -1 -10 4 -10 6 0 11 5 11 10 0 6 -2 10 -4 10 -3
0 -8 -4 -11 -10z"/>
<path d="M14040 9803 c0 -15 18 -35 23 -27 3 5 -1 15 -9 22 -8 7 -14 9 -14 5z"/>
<path d="M10891 9683 c1 -38 4 -58 6 -45 2 12 9 20 14 17 5 -4 9 2 9 12 0 15
2 16 10 3 8 -13 10 -12 10 3 0 9 5 17 11 17 5 0 8 -4 5 -8 -3 -5 -1 -22 4 -38
4 -16 9 -22 9 -14 1 13 2 13 11 0 7 -11 10 -12 10 -2 0 10 5 8 18 -4 16 -17
17 -16 20 15 2 18 -2 39 -9 47 -8 10 -8 14 0 14 6 0 10 11 9 25 -2 24 -5 25
-70 25 l-68 0 1 -67z"/>
<path d="M8765 8800 c3 -5 8 -10 11 -10 2 0 4 5 4 10 0 6 -5 10 -11 10 -5 0
-7 -4 -4 -10z"/>
<path d="M10748 7503 c12 -2 30 -2 40 0 9 3 -1 5 -23 4 -22 0 -30 -2 -17 -4z"/>
<path d="M9015 5620 c3 -5 8 -10 11 -10 2 0 4 5 4 10 0 6 -5 10 -11 10 -5 0
-7 -4 -4 -10z"/>
<path d="M14560 17360 l0 -80 -80 0 -80 0 0 -80 0 -80 -80 0 -80 0 0 -240 0
-240 80 0 80 0 0 -80 0 -80 80 0 80 0 0 -80 0 -80 320 0 320 0 0 80 0 80 80 0
80 0 0 80 0 80 80 0 80 0 0 240 0 240 -80 0 -80 0 0 80 0 80 -80 0 -80 0 0 80
0 80 -320 0 -320 0 0 -80z m640 -160 l0 -80 80 0 80 0 0 -240 0 -240 -80 0
-80 0 0 -80 0 -80 -320 0 -320 0 0 80 0 80 -80 0 -80 0 0 240 0 240 80 0 80 0
0 80 0 80 320 0 320 0 0 -80z"/>
<path d="M14683 16633 c9 -2 25 -2 35 0 9 3 1 5 -18 5 -19 0 -27 -2 -17 -5z"/>
<path d="M14991 16636 c8 -8 189 -13 189 -5 0 3 -44 7 -97 8 -54 1 -95 0 -92
-3z"/>
<path d="M16320 15920 l0 -80 -80 0 -80 0 0 -80 0 -80 -80 0 -80 0 0 -240 0
-240 80 0 80 0 0 -80 0 -80 80 0 80 0 0 -80 0 -80 320 0 320 0 0 80 0 80 80 0
80 0 0 80 0 80 80 0 80 0 0 240 0 240 -80 0 -80 0 0 80 0 80 -80 0 -80 0 0 80
0 80 -320 0 -320 0 0 -80z m640 -160 l0 -80 80 0 80 0 0 -240 0 -240 -80 0
-80 0 0 -80 0 -80 -240 0 -240 0 0 74 0 74 111 1 c61 0 114 3 117 6 3 3 -119
5 -271 5 l-277 0 0 240 0 240 80 0 80 0 0 80 0 80 320 0 320 0 0 -80z"/>
<path d="M16311 15504 c0 -11 3 -14 6 -6 3 7 2 16 -1 19 -3 4 -6 -2 -5 -13z"/>
<path d="M16217 15417 c-3 -8 -2 -20 3 -26 5 -9 8 -4 8 13 0 29 -3 32 -11 13z"/>
<path d="M16312 15380 c0 -19 2 -27 5 -17 2 9 2 25 0 35 -3 9 -5 1 -5 -18z"/>
<path d="M16207 15340 c3 -11 9 -20 14 -20 4 0 7 9 6 20 -1 11 -7 20 -13 20
-7 0 -10 -8 -7 -20z"/>
<path d="M16173 15316 c0 -8 13 -16 29 -18 15 -3 28 -1 28 4 0 4 -9 8 -20 8
-11 0 -20 5 -20 10 0 6 -4 10 -8 10 -5 0 -9 -6 -9 -14z"/>
<path d="M16733 15193 c9 -2 23 -2 30 0 6 3 -1 5 -18 5 -16 0 -22 -2 -12 -5z"/>
<path d="M16788 15193 c7 -3 16 -2 19 1 4 3 -2 6 -13 5 -11 0 -14 -3 -6 -6z"/>
<path d="M16903 15188 c21 -7 32 -7 40 1 8 8 0 11 -28 10 -40 -1 -40 -1 -12
-11z"/>
<path d="M15200 14800 l0 -80 -80 0 -80 0 0 -80 0 -80 -80 0 -80 0 0 -160 0
-160 80 0 80 0 0 -80 0 -80 400 0 400 0 0 80 0 80 80 0 80 0 0 240 0 240 -80
0 -80 0 0 80 0 80 -320 0 -320 0 0 -80z m640 -320 l0 -240 -400 0 -400 0 0
160 0 160 80 0 80 0 0 80 0 80 320 0 320 0 0 -240z"/>
<path d="M4000 14320 l0 -80 -80 0 -80 0 0 -240 0 -240 -80 0 -80 0 0 -240 0
-240 80 0 80 0 0 -320 0 -320 80 0 80 0 0 314 0 315 38 4 c20 2 -16 4 -80 5
l-118 2 0 160 0 160 80 0 80 0 0 80 0 80 80 0 80 0 0 80 0 80 -80 0 -80 0 0
160 0 160 80 0 80 0 0 80 0 80 -80 0 -80 0 0 -80z"/>
<path d="M4093 13273 c9 -2 23 -2 30 0 6 3 -1 5 -18 5 -16 0 -22 -2 -12 -5z"/>
<path d="M4139 13173 c-1 -10 0 -25 1 -33 1 -12 -1 -12 -10 -3 -7 6 -19 9 -26
6 -26 -10 -14 -21 21 -21 33 0 35 2 35 34 0 34 -19 49 -21 17z"/>
<path d="M4050 13130 c0 -5 5 -10 11 -10 5 0 7 5 4 10 -3 6 -8 10 -11 10 -2 0
-4 -4 -4 -10z"/>
<path d="M4092 13098 c2 -6 10 -13 16 -14 7 -1 8 0 2 3 -5 2 -8 9 -4 14 3 5 0
9 -6 9 -7 0 -10 -5 -8 -12z"/>
<path d="M4069 13098 c-1 -5 -2 -14 -3 -20 0 -7 -14 -15 -31 -18 -20 -4 -26
-8 -17 -13 7 -5 10 -12 8 -16 -3 -4 -8 -22 -11 -39 l-5 -32 69 0 c39 0 73 4
76 10 3 5 0 7 -9 4 -8 -3 -30 -1 -50 4 -25 7 -37 7 -41 -1 -3 -7 -3 -2 -1 11
4 19 2 21 -10 11 -11 -9 -14 -8 -14 8 0 15 6 20 23 19 12 -1 28 3 36 8 11 8
13 8 8 -1 -4 -6 -3 -14 3 -18 5 -3 10 3 10 15 0 12 4 19 8 16 5 -3 9 1 9 8 0
11 -5 11 -26 0 -18 -10 -27 -10 -30 -3 -2 6 1 14 7 18 7 4 8 12 2 21 -6 8 -10
12 -11 8z m-19 -58 c0 -5 -2 -10 -4 -10 -3 0 -8 5 -11 10 -3 6 -1 10 4 10 6 0
11 -4 11 -10z"/>
<path d="M4152 13020 c0 -19 2 -27 5 -17 2 9 2 25 0 35 -3 9 -5 1 -5 -18z"/>
<path d="M5281 12743 l-1 -92 58 3 c86 4 89 7 91 82 l1 64 -69 0 c-58 0 -70 3
-74 18 -3 9 -5 -24 -6 -75z"/>
<path d="M4010 12726 c0 -65 2 -74 18 -71 9 2 20 4 25 4 4 1 7 8 7 16 0 8 8
15 18 16 10 0 12 3 5 6 -7 2 -13 16 -13 29 0 13 6 24 13 24 9 0 8 3 -2 9 -17
11 -6 17 43 25 65 11 54 16 -32 16 l-82 0 0 -74z"/>
<path d="M4070 12670 c0 -5 5 -10 11 -10 5 0 7 5 4 10 -3 6 -8 10 -11 10 -2 0
-4 -4 -4 -10z"/>
<path d="M4311 12644 c0 -11 3 -14 6 -6 3 7 2 16 -1 19 -3 4 -6 -2 -5 -13z"/>
<path d="M2400 9520 l0 -80 -160 0 -160 0 0 -80 0 -80 -80 0 -80 0 0 -1840 0
-1840 1120 0 1120 0 0 -80 0 -80 80 0 80 0 0 -80 0 -80 400 0 400 0 0 80 0 80
80 0 80 0 0 80 0 80 1040 0 1040 0 0 1840 0 1840 -80 0 -80 0 0 80 0 80 -160
0 -160 0 0 80 0 80 -720 0 -720 0 0 -80 0 -80 -160 0 -160 0 0 -80 0 -80 -80
0 -80 0 0 -80 0 -80 -240 0 -240 0 0 80 0 80 -80 0 -80 0 0 80 0 80 -160 0
-160 0 0 80 0 80 -800 0 -800 0 0 -80z m1600 -160 l0 -80 160 0 160 0 0 -80 0
-80 80 0 80 0 0 -80 0 -80 80 0 80 0 0 -1520 0 -1520 -80 0 -80 0 0 80 0 80
-160 0 -160 0 0 80 0 80 -880 0 -880 0 0 1600 0 1600 800 0 800 0 0 -80z
m2880 -1520 l0 -1600 -800 0 -800 0 0 -80 0 -80 -160 0 -160 0 0 -80 0 -80
-80 0 -80 0 0 1520 0 1520 80 0 80 0 0 80 0 80 80 0 80 0 0 80 0 80 160 0 160
0 0 80 0 80 720 0 720 0 0 -1600z"/>
<path d="M2720 8320 l0 -640 320 0 320 0 0 -80 0 -80 160 0 160 0 0 80 0 80
320 0 320 0 0 640 0 640 -320 0 -320 0 0 -80 0 -80 -160 0 -160 0 0 80 0 80
-320 0 -320 0 0 -640z m640 0 l0 -480 -240 0 -240 0 0 480 0 480 240 0 240 0
0 -480z m800 0 l0 -480 -240 0 -240 0 0 480 0 480 240 0 240 0 0 -480z"/>
<path d="M3040 8480 l0 -160 80 0 80 0 0 160 0 160 -80 0 -80 0 0 -160z"/>
<path d="M3040 8080 l0 -80 80 0 80 0 0 80 0 80 -80 0 -80 0 0 -80z"/>
<path d="M3840 8480 l0 -160 80 0 80 0 0 160 0 160 -80 0 -80 0 0 -160z"/>
<path d="M3840 8080 l0 -80 80 0 80 0 0 80 0 80 -80 0 -80 0 0 -80z"/>
<path d="M3680 7200 l0 -160 -400 0 -400 0 0 -80 0 -80 400 0 400 0 0 -160 0
-160 80 0 80 0 0 80 0 80 80 0 80 0 0 80 0 80 80 0 80 0 0 80 0 80 -80 0 -80
0 0 80 0 80 -80 0 -80 0 0 80 0 80 -80 0 -80 0 0 -160z"/>
<path d="M6080 8960 l0 -160 -400 0 -400 0 0 -80 0 -80 -80 0 -80 0 0 -80 0
-80 80 0 80 0 0 80 0 80 400 0 400 0 0 -160 0 -160 80 0 80 0 0 80 0 80 80 0
80 0 0 80 0 80 80 0 80 0 0 80 0 80 -80 0 -80 0 0 80 0 80 -80 0 -80 0 0 80 0
80 -80 0 -80 0 0 -160z"/>
<path d="M4960 7600 l0 -400 80 0 80 0 0 -80 0 -80 80 0 80 0 0 -80 0 -80 80
0 80 0 0 -80 0 -80 80 0 80 0 0 -80 0 -80 80 0 80 0 0 80 0 80 80 0 80 0 0
-80 0 -80 80 0 80 0 0 80 0 80 80 0 80 0 0 80 0 80 80 0 80 0 0 80 0 80 80 0
80 0 0 80 0 80 80 0 80 0 0 400 0 400 -80 0 -80 0 0 -80 0 -80 -160 0 -160 0
0 80 0 80 -160 0 -160 0 0 -80 0 -80 -160 0 -160 0 0 80 0 80 -80 0 -80 0 0
-80 0 -80 -160 0 -160 0 0 80 0 80 -80 0 -80 0 0 -400z m640 80 l0 -160 80 0
80 0 0 80 0 80 160 0 160 0 0 -80 0 -80 80 0 80 0 0 -160 0 -160 80 0 80 0 0
-80 0 -80 -80 0 -80 0 0 -80 0 -80 -80 0 -80 0 0 -80 0 -80 -80 0 -80 0 0 80
0 80 80 0 80 0 0 80 0 80 80 0 80 0 0 80 0 80 -80 0 -80 0 0 160 0 160 -80 0
-80 0 0 -80 0 -80 -240 0 -240 0 0 240 0 240 80 0 80 0 0 -160z m-160 -560 l0
-80 80 0 80 0 0 -80 0 -80 80 0 80 0 0 -80 0 -80 -80 0 -80 0 0 80 0 80 -80 0
-80 0 0 80 0 80 -80 0 -80 0 0 80 0 80 80 0 80 0 0 -80z"/>
<path d="M14720 8400 l0 -80 -80 0 -80 0 0 -80 0 -80 -80 0 -80 0 0 -320 0
-320 79 0 c44 0 81 4 83 10 2 6 1 -30 0 -80 l-4 -90 241 0 241 0 0 -80 0 -80
80 0 80 0 0 -1200 0 -1200 -80 0 -80 0 0 -800 0 -800 -240 0 -240 0 0 -80 0
-80 -80 0 -80 0 0 -320 0 -320 80 0 80 0 0 -80 0 -80 2240 0 2240 0 0 80 0 80
-1760 0 -1760 0 0 320 0 320 1760 0 1760 0 0 -320 0 -320 80 0 80 0 0 320 0
320 -80 0 -80 0 0 80 0 80 -240 0 -240 0 0 320 0 320 -80 0 -80 0 0 240 0 240
80 0 80 0 0 1520 0 1520 240 0 240 0 0 80 0 80 80 0 80 0 0 320 0 320 -80 0
-80 0 0 80 0 80 -80 0 -80 0 0 80 0 80 -2080 0 -2080 0 0 -80z m4160 -160 l0
-80 80 0 80 0 0 -320 0 -320 -1920 0 -1920 0 0 320 0 320 -80 0 -80 0 0 80 0
80 1920 0 1920 0 0 -80z m-480 -2400 l0 -1520 -80 0 -80 0 0 -240 0 -240 80 0
80 0 0 -320 0 -320 -1520 0 -1520 0 0 74 c0 63 3 75 18 79 9 3 -27 5 -80 6
l-98 1 0 720 0 720 80 0 80 0 0 1200 0 1200 -80 0 -80 0 0 80 0 80 1600 0
1600 0 0 -1520z"/>
<path d="M15840 7120 l0 -80 80 0 80 0 0 -80 0 -80 880 0 880 0 0 80 0 80 80
0 80 0 0 80 0 80 -1040 0 -1040 0 0 -80z"/>
<path d="M15680 6640 l0 -80 1200 0 1200 0 0 80 0 80 -1200 0 -1200 0 0 -80z"/>
<path d="M15680 6320 l0 -80 1200 0 1200 0 0 80 0 80 -1200 0 -1200 0 0 -80z"/>
<path d="M15680 6000 l0 -80 960 0 960 0 0 80 0 80 -960 0 -960 0 0 -80z"/>
<path d="M16000 5440 l0 -160 -80 0 -80 0 0 -80 0 -80 -80 0 -80 0 0 80 0 80
-80 0 -80 0 0 -80 0 -80 80 0 80 0 0 -80 0 -80 80 0 80 0 0 80 0 80 80 0 80 0
0 80 0 80 80 0 80 0 0 160 0 160 -80 0 -80 0 0 -160z"/>
<path d="M16480 5200 l0 -80 480 0 480 0 0 80 0 80 -480 0 -480 0 0 -80z"/>
<path d="M17760 5200 l0 -80 160 0 160 0 0 80 0 80 -160 0 -160 0 0 -80z"/>
<path d="M16000 4800 l0 -160 -80 0 -80 0 0 -80 0 -80 -80 0 -80 0 0 80 0 80
-80 0 -80 0 0 -80 0 -80 80 0 80 0 0 -80 0 -80 80 0 80 0 0 80 0 80 80 0 80 0
0 80 0 80 80 0 80 0 0 160 0 160 -80 0 -80 0 0 -160z"/>
<path d="M16480 4560 l0 -80 320 0 320 0 0 80 0 80 -320 0 -320 0 0 -80z"/>
<path d="M17280 4560 l0 -80 400 0 400 0 0 80 0 80 -400 0 -400 0 0 -80z"/>
<path d="M16000 4160 l0 -160 -80 0 -80 0 0 -80 0 -80 -80 0 -80 0 0 80 0 80
-80 0 -80 0 0 -80 0 -80 80 0 80 0 0 -80 0 -80 80 0 80 0 0 80 0 80 80 0 80 0
0 80 0 80 80 0 80 0 0 160 0 160 -80 0 -80 0 0 -160z"/>
<path d="M16480 3920 l0 -80 400 0 400 0 0 80 0 80 -400 0 -400 0 0 -80z"/>
<path d="M17440 3920 l0 -80 320 0 320 0 0 80 0 80 -320 0 -320 0 0 -80z"/>
<path d="M15508 3353 c7 -3 16 -2 19 1 4 3 -2 6 -13 5 -11 0 -14 -3 -6 -6z"/>
<path d="M15568 3353 c18 -2 45 -2 60 0 15 2 0 4 -33 4 -33 0 -45 -2 -27 -4z"/>
<path d="M15663 3354 c7 -7 159 -6 166 1 2 3 -35 5 -84 5 -49 0 -85 -3 -82 -6z"/>
<path d="M15988 3353 c29 -2 74 -2 100 0 26 2 2 3 -53 3 -55 0 -76 -1 -47 -3z"/>
<path d="M16158 3353 c12 -2 30 -2 40 0 9 3 -1 5 -23 4 -22 0 -30 -2 -17 -4z"/>
<path d="M16238 3353 c12 -2 30 -2 40 0 9 3 -1 5 -23 4 -22 0 -30 -2 -17 -4z"/>
<path d="M16418 3353 c6 -2 18 -2 25 0 6 3 1 5 -13 5 -14 0 -19 -2 -12 -5z"/>
<path d="M16828 3353 c7 -3 16 -2 19 1 4 3 -2 6 -13 5 -11 0 -14 -3 -6 -6z"/>
<path d="M17433 3353 c15 -2 37 -2 50 0 12 2 0 4 -28 4 -27 0 -38 -2 -22 -4z"/>
<path d="M17938 3353 c12 -2 30 -2 40 0 9 3 -1 5 -23 4 -22 0 -30 -2 -17 -4z"/>
<path d="M18090 3356 c0 -2 18 -6 40 -8 22 -2 40 0 40 4 0 5 -18 8 -40 8 -22
0 -40 -2 -40 -4z"/>
<path d="M18201 3338 c1 -19 2 -19 6 -5 3 11 11 16 19 13 8 -3 14 -1 14 4 0 6
-9 10 -20 10 -14 0 -20 -6 -19 -22z"/>
<path d="M18226 3315 c-3 -8 -1 -15 4 -15 6 0 10 7 10 15 0 8 -2 15 -4 15 -2
0 -6 -7 -10 -15z"/>
<path d="M18138 3303 c6 -2 18 -2 25 0 6 3 1 5 -13 5 -14 0 -19 -2 -12 -5z"/>
<path d="M16068 3283 c7 -3 16 -2 19 1 4 3 -2 6 -13 5 -11 0 -14 -3 -6 -6z"/>
<path d="M15668 3273 c12 -2 30 -2 40 0 9 3 -1 5 -23 4 -22 0 -30 -2 -17 -4z"/>
<path d="M15807 3273 c18 -2 50 -2 70 0 21 2 7 4 -32 4 -38 0 -55 -2 -38 -4z"/>
<path d="M16178 3273 c7 -3 16 -2 19 1 4 3 -2 6 -13 5 -11 0 -14 -3 -6 -6z"/>
<path d="M16248 3273 c12 -2 32 -2 45 0 12 2 2 4 -23 4 -25 0 -35 -2 -22 -4z"/>
<path d="M16448 3273 c6 -2 18 -2 25 0 6 3 1 5 -13 5 -14 0 -19 -2 -12 -5z"/>
<path d="M16688 3273 c7 -3 16 -2 19 1 4 3 -2 6 -13 5 -11 0 -14 -3 -6 -6z"/>
<path d="M17663 3273 c9 -2 25 -2 35 0 9 3 1 5 -18 5 -19 0 -27 -2 -17 -5z"/>
<path d="M17768 3273 c12 -2 30 -2 40 0 9 3 -1 5 -23 4 -22 0 -30 -2 -17 -4z"/>
<path d="M17878 3273 c23 -2 59 -2 80 0 20 2 1 4 -43 4 -44 0 -61 -2 -37 -4z"/>
<path d="M18013 3273 c9 -2 25 -2 35 0 9 3 1 5 -18 5 -19 0 -27 -2 -17 -5z"/>
<path d="M18118 3273 c7 -3 16 -2 19 1 4 3 -2 6 -13 5 -11 0 -14 -3 -6 -6z"/>
<path d="M17050 3260 c0 -5 5 -10 11 -10 5 0 7 5 4 10 -3 6 -8 10 -11 10 -2 0
-4 -4 -4 -10z"/>
<path d="M17227 3259 c7 -7 15 -10 18 -7 3 3 -2 9 -12 12 -14 6 -15 5 -6 -5z"/>
<path d="M17470 3259 c0 -5 5 -7 10 -4 6 3 10 8 10 11 0 2 -4 4 -10 4 -5 0
-10 -5 -10 -11z"/>
<path d="M17510 3258 c0 -5 18 -8 40 -8 22 0 40 2 40 4 0 2 -18 6 -40 8 -22 2
-40 0 -40 -4z"/>
<path d="M15673 3253 c15 -2 37 -2 50 0 12 2 0 4 -28 4 -27 0 -38 -2 -22 -4z"/>
<path d="M15783 3253 c15 -2 37 -2 50 0 12 2 0 4 -28 4 -27 0 -38 -2 -22 -4z"/>
<path d="M15888 3253 c18 -2 45 -2 60 0 15 2 0 4 -33 4 -33 0 -45 -2 -27 -4z"/>
<path d="M15988 3253 c7 -3 16 -2 19 1 4 3 -2 6 -13 5 -11 0 -14 -3 -6 -6z"/>
<path d="M16078 3253 c6 -2 18 -2 25 0 6 3 1 5 -13 5 -14 0 -19 -2 -12 -5z"/>
<path d="M16183 3253 c15 -2 37 -2 50 0 12 2 0 4 -28 4 -27 0 -38 -2 -22 -4z"/>
<path d="M16268 3253 c6 -2 18 -2 25 0 6 3 1 5 -13 5 -14 0 -19 -2 -12 -5z"/>
<path d="M16448 3253 c6 -2 18 -2 25 0 6 3 1 5 -13 5 -14 0 -19 -2 -12 -5z"/>
<path d="M16668 3253 c7 -3 16 -2 19 1 4 3 -2 6 -13 5 -11 0 -14 -3 -6 -6z"/>
<path d="M17268 3253 c7 -3 16 -2 19 1 4 3 -2 6 -13 5 -11 0 -14 -3 -6 -6z"/>
<path d="M17988 3253 c7 -3 16 -2 19 1 4 3 -2 6 -13 5 -11 0 -14 -3 -6 -6z"/>
<path d="M18889 2558 c-7 -24 -5 -40 7 -45 8 -3 14 -9 14 -14 0 -4 -7 -6 -15
-3 -8 4 -15 1 -15 -5 0 -6 7 -11 15 -11 8 0 15 -4 15 -10 0 -5 5 -10 11 -10 5
0 8 4 5 8 -3 5 1 9 9 9 8 0 15 -6 15 -14 0 -7 -9 -13 -21 -13 -11 0 -18 -4
-15 -8 3 -5 19 -8 36 -7 30 2 41 -9 18 -18 -7 -3 1 -6 19 -6 36 -1 40 10 35
95 l-4 52 -54 1 c-39 0 -54 -3 -54 -13 0 -9 7 -12 20 -9 11 3 20 0 20 -6 0 -6
-13 -11 -29 -11 -24 0 -28 3 -24 20 3 11 3 20 -1 20 -3 0 -6 -1 -7 -2z"/>
</g>
</svg>
